<mxfile host="app.diagrams.net" modified="2020-07-19T17:04:46.098Z" agent="5.0 (Windows NT 10.0; Win64; x64) AppleWebKit/537.36 (KHTML, like Gecko) Chrome/84.0.4147.89 Safari/537.36" etag="baxZ4Mgy8ihwfFymRqt2" version="13.4.6" type="github">
  <diagram id="hBQgMEI3uv-p5yMspN1c" name="Page-1">
    <mxGraphModel dx="1822" dy="1113" grid="1" gridSize="10" guides="1" tooltips="1" connect="1" arrows="1" fold="1" page="0" pageScale="1" pageWidth="850" pageHeight="1100" math="0" shadow="0">
      <root>
        <mxCell id="0" />
        <mxCell id="1" parent="0" />
        <mxCell id="93TaMooDdM3QIlw6AQbC-189" value="" style="shape=image;verticalLabelPosition=bottom;verticalAlign=top;imageAspect=0;aspect=fixed;image=data:image/png,iVBORw0KGgoAAAANSUhEUgAAANcAAADqCAMAAAAGRyD0AAAAilBMVEX///8AAADu7u7t7e34+Pjs7Oz6+vrz8/P19fX+/v78/Pzx8fHv7+/Hx8fZ2dnQ0NCYmJihoaE9PT2+vr4qKirf39+xsbFPT0/ExMRwcHBaWlqMjIxTU1Orq6tpaWnOzs6Pj4+Dg4NGRkY1NTUtLS15eXliYmIODg4aGhojIyN1dXVAQEClpaUXFxcb68uJAAAZJElEQVR4nNUdZ3vjLIx4gY3jrDppm92Rttfe//97L5gsxBJp0uvLfTgeSmTJBkloQYhoVZokKZM9moheKTqlGEqoHGLyj5XsySEuO5kcKro/Nsvh6unu7a3Xe/sYP86Xa5LROkm/B7UWQ7XsFHIokz0uQURAJRdjIIYG2/ee0RbDlvL/LV2c1V/PJlGq7Sa/jq70bG4K5uaiozBIWL7566JKtvGkjIfqpUv08ghcSSVawUVjssdkT3Yqfag4DNFuPl1++KiS7WlNaBzU7Dgkf0jLw1B2GOIlHleSiqZeV56mefe6EjGkXpcc2r8u0ZOdUgyx9jFElWx/eBTUfP8RRK/svqPoqY8g/1gdhnC4piSJXd41+8JQJdpH/8qbBr8Vk2i66uQPkizRNgrEv6DrtA5l7/htEzVXNH3FkPYJT1avt8pqDNRKrrDTOiT6OkzNdRjCNSVMtkw2reMYqvKXGLJ6vRnLwlDPerihMK4k6nXxNsgHYRtHfYQcfIT80k9LYpY3b+9iyRJf7FfIZd/cJBnHkyX2GGH/ii7z25aWb8t2l5DV6w0rH1SLUKrP12EeXIc2qISKxgrRMtnLZI/Zh6qRA++359ni8XHx5Nx7a+KGSmWnOGKBGwriSqX8MtSzNElN9YwPrDjfbQdNnjH5kniztH/R58wJ1a305ThV0g41Qi4z2+YaTwU2db1f3hlljVUfnl9n09xC32C2VTgsIAac5VvLxOYf6hu5VXzst22SvxnIPjXdD+XOz08aqjhumhttZ4dq0XvzM6F0BvWoCiNw7fSNshQnpUQsJSa6giOLXimbPlSRoYHrH/EOeV3XXM4q5KxM9mjNWnPJrrkVquiJTk1lJ5NDhexZoYoeQeIqaXJtW/2sVlbGN3h1LwNODcJWHSzbCfBy+eU9V+KWN5kYiBIPBnVlGD4aYkL993YAAk+Sz+rnTgxaSNf8h7+XXJ+VWLw1kz1WH9ZsN0T2Q7yFXGNACznrsBPKQs7P5JDaCQSyz+fKgJoch+T+KjM55IeKwVVBRfLDqfn2XZxrL0HrT/gm+Hf4oc8OYOWHOPm1AkgWQUlD4Y4cst8nlzPA3+ZhDOp6of/mkf40XWGdC3KBfL9tc48mZ3wwjtUPfVDR+qE4Mx8UYtFTCrFs50PlvY7hWOnn4o9KzT6AYEcQosM4+MgNgHoGItNBeKAGcVXzcXYANtcx3NDAtlUgXvVfTUjADhBiBle3A7AHgCHFSBoC7IyjX2cHgAflvEbRBTbY5rfZAZJ0pmN4shxpJ3Zoauzrv/oTsgOgoGLtAAibXAE4wF9WYCx9BThg76qftB867L37ZaBeF9M9XR9OD4Gcf/wIrNHpemQ6VPdH8EEN4RqjbwC63nESFNK1Y79N3yiATR5JF1iHrz9KF0rvBacUqm1b4Kk6LiK21n81pxi9NwQVq/ee/JVlVZXAB7gfKoDaey+nFfKPfO9GLDsQmewdPYvwEPBFdKjKs9iBkM7JUvkrQ1BDuB78lWAZWM9qbKtjOPTK5YPSR8CvJj/qX8Ysb7rUMZwxlFwGUi8PbJry6N+hvP4RfcMw9QqFI0wXPAQ4MBAdnpFyMPnarh4Xi91qO1pO8oJdg66ADK+h22vIEB4CoPauINS9ZpAwtt4YoSB/t2s7VKy+IXthHgPNNiR4YudAeolNab6CPK0pHboiQbaDAkLF4MpzvB0AWmFGQUkDzwC9hhtQKWeN1wv/uIZL9sr2efjye3WALgqOor0ZN6Fm7SuEC9usr+ZfxQ5gwQDwtt7j3g5M7Gw2yaHHdslMqEvT5m+2XcPiRUIi/XqHMB7RUzE7sulDGTS09Tal/KUSi6KzD+MRvU7YZtCA1UsYgEpSY46jjRjbhxyhcBVzaPeaMWpMacQ3LF3bVoywDZy9pQAq7eNDC1YsWuXqGkYmGB9M8g778q6hPUS0ptahliY8T/vMs1vI5W6u6ft5La100RSyQvG5GIC6NKZ4292AXkQXQtYZLLHXe25kmBAI46n6Zrzle1vrUCPJEhAaupfLGFwla8Eew8nW8rhVS4rsdAwvKtLaXOfLSoMK7ZGY9iFUqwiTgd8OcGY2SRJozFZttxYsldHuh1Uzgt4GNUeH6ogsCLRxwA6gmXhi4g9r6nji7HWzGY6G24Xj7+9cg1q1lmhnRHu4WfyhZYth2n2pQSWusJ2358eHh92TMwZryq5tBziIj77rkb62ZDpUO4f/+3Av+V3FMj6Y7OyKSFvj7QCnAJ2qKCoQs6MNCdleREkd1UZEg8pymzx+WdZqWlYVQlspm7lNyZ+RColrQYBMSP1uGhZN2AhAhTYF2d6Gmb64Us5ayzxpSkDiCukKmbmySBa9BFCNY5loi6YwNw0nfZO9fFS3y3cYYJTw4wsuAVTL59pSbmcGuRlK/BVtB8CH8Vge52ifDQdQEyOwQPqdXYdgBk9HvY8CGXLU8XkVjCZ7Z8tA8hg5dMY7u09bU26+c2sbWqAasfebw4JJOmQlK08OH4Hnhkq2zJC4xsivAwZlg4jznTW2TQO/wAMDG0E7rWY5hPqZoXC9jC6BwTSgMzxPCmqhC+I5pol/gxvxS4Pb0aUwmHq22WKSURtUI4hxQENGXHioniPp4pzXtOzCeERvH8Yj/pVdGI8Y2ofxiJ4KORKdLoynYOutNUlgPGxlKpEFKmcAyzmDUNnhQaUaIgmA/oTCVQVGXhzWWN5Dg9LT14Ax7goOKnRu+JdaoWrKEYNPGNQofuhf3iRgvqMl4FhrFSzvgAq218YB9XxxcWgOn9Lb5lcqDOChrO+1pAMu0CLoSqAQ27IL4w/zmIzBDBwk+97gIJ1tLIgL6llwUEoBr1kxDK6dPp8do3GOnUIfAjE7p6EScMX7Up+lQSW6+e2VuKBqQ2Ah7goMrrF5iIbnHqySCfcEBwHlcJTh4gH0J8zK2+Qhgk0DDv97uuybBvC2Jc4oCJb6OLutXN5jADxIXrqoblhE0gW828/s+nYAi1sNGCu865DqTqEp8zjrTuuw0r9yR1fYDnAywBVZVgCbnDZUHIZOMTuCbwC67it9lgai3GpzR6ULqjYE6coRuHYEfiNts4aaUd/rMdX54ZC4oGrBQZX+6sZ5gsCVBJe3Xy5b6PJsGj0ZpFNhg3I5yXSVZpbWP6BvQHerny5dxL7i6AJ8fhehb5gaaonSe0nCgH8YrEMAVdejdsQF9ZwZcBCOtGIYXIkK45G6vwrjkbp/F7MjdX8VxiN1f21InSi6MB4jiJceQZhQqW6Yf86pA6o8uuyHjEymOcHgivQvS6XPnh6y1Z96Tz2e4DqHk11Qz5U+cGKYYnD9nlzm4rlgf21az6apc137f2AIuQwNji0G12/QxWjRfllcKDOZculgBtBB23AvXd33AgLyjqPpQuYQgMMHWzqztBf3jNYWqAkMKxAfLJTvAD/XCoVrx3Ui7AAHCybNzbzE8/YxtUJtoUFkEAoOotCCOOE4u2hoedvkV8WX3uo2irKSa1AFTPNd3FV++WWYvd+72P0byeXWsC/b2mzNzjQDTiY2Y+rKu8FN//orweEK6cLYAdC+ok26t8+L//sOL+2ceQSN6bxpCA5XFd+rHGMyEugQHKQP0eIQs8PKLKIOzKLtAo2yojFDOk6EMfUgleF/FhxkGnt7C4LENdYOEFkH5qMRb5XmZvzNWVtl1npENTeCkYQk5zeqR9Q6i3w5Wj9LRgFb/kunLINNQxpLMadHdqN6RPF1YHojREWc1SCjiUYXtXysTo5fVI8oVF4muaAODK4tpkqUylA/Rgb2eMs5w+IaWY/oojow2PY0nPYH6/vp0BXf8UIyNK6KJ+LsANRTvuwtxut8YWsicFV04WSdXXX6+DOR/vwsayfLx1tSN6URuEbQZaT8y7aY0Gy/bcX5jtCpNfDrGm3DLsoLALGlZzF9h/B1y+aa3WfcSLkP87+nfnT8ocyygtYFD66EHGW1Ie7PhxjNLFX0hqw0xX2Zbf0Y3i0FTFOVCJBVHhQeBK4R9YiS3BCu7/fMUjlIvi4v0puE1WL9DIIngvO2VfwBfVZEy2VmMI2PhjmXtztw8qFVOyQjOepQoNqQ3ijfgRpRaG8N9WxbRxTVeH0G1XIcs7e3CbsoDxGRy8KMjT4ofMdVaj3LjLgOdY1SNhctNQ/swbybjscEeacRJzNkAVXS1IQe9vacM6hGPo+ldRFxN6pvY0TXPWVJgK4M8oW1AVViQAOZN9uU3rAekZHAMOBB1R+uxMrxZq0BlKq9zVtW37IeEQWHyV0RzvCswObpO95swtLpznL8eXucVJ0Uuixv1DSP1+fm8W6IwmXYp4cwnnPzeH00j8tIILh3NgRAVQ8qu5rCxeBrNz4S9/Yy207k1zGhBnHdQ8X5YYE8eu9el4MfHlyANXgZY089oirnjJW0bQb3k/v7fpspLG5ej8h49aHl3Q0BC1SOSd7tPCXEA/WqcnmrYzhB0VUAZtPn/7guse7elXOBlSxV23YvhF3FQhhQOr5oTJ2KYAkSF67ndgBfGI8Ygj4NXMhRBjbYsPA/6LJAJscQsbwucng3h9cFDAAfDrMJNDUCbrMhgSiDywJI7FAJZnkDDvDcxckETY1lo6sc219Xj+hSut7+NV3mty096/A9S1JEfYDSXIeX1CO6sD7A9/hG5tnhl/MNH1Qs30DxeRBU0x5fl8mRUyefX36DzzvrETn5PEoug8PENLi8bXJ58KNyGUUXOLH/QWHAgHk48etRyVGP6mb9SD0iaIfp6Aq42KHeu/DW4eSUESb03r5QewcdrSkukMml9x7SDaDuX/vOKVNmnFNq45wCDI5DYn2QzGugBWmmD59HZ837eDfqiy9kgRrE9XBOAcvbYQcA58ox5lwJ7MMDA+qhVEfW31oMOB8PffKNcyVq2xp2gHsalKDQOOraismX0/D9Psxvawcw7DZ3LGS3MQpP39vfbMAiNb+p3ca0s21DdratgeJjDqGWmJCJC+1sSLuogUDfZRdVLkArwvNUh4qMb5GlHG5Uj4ga9Wp6A+Z5XQ479sfkHCo6vmXKkhvZ57l5XcCbDBOK9js8Nge/QxasRXRqc15eQBfOT2Sa+MRrtKd7ez/ENu/8RHmUY3PVIRbjJ8L6ygqLi3HblRkEfr2gafrvMCmqSaQnelVE+vU6HmP6Ni3XilkCiMZTRhOwbcNXufWe7xH+BtB2tdMPa7sCTdGF4p1Wv/nnND/3m+fL2DgjdHu9wG+Om2v3w/3dTQeJNDk3k1GECzK+jeLjHHBna3jw+Om2jsD1F8URva2+Jv3+ZDpy1jerIuKILHYAR40fGfcVH86GbC/DLkqIZF3cV2MPWPzDblGP6IZxerMJY1zbNNXIJgjW+Di9OLrMSPFQW2dpyO8vtCt5Vy6Iq2wty/EJH1eJsgNcHAd7J+Ngmb98445ai+Ql1PI+JrY4WHddYjMWWNYahLHA3RDJ3CHIRlu03Q+zrO+WANuYuOWZLW7ZhiuUXyni2gh00NZGXtfSQaW1Sw2ZZ3VMnPnAFmd+hXpEEXkBi/O8gJraCiwF8wIMDfrPhXkBKLoweRx3EyOPozF5zkt8HkcSp29E5d2kobybO2veTWmkFITyblIKz7NTZN4N8vwlhmD+19J5gtr1mThjmVBrWE51xSBUKh90vmngERWbJxUpv0Bem0VjXEwzZ75eAoTEwJ/X1i0uEFVwRzG4Xj8PUa0MB10gv3KHKRoKP1iDputb5d+3+lO9eaMc8O0pxRhxwQ5D5o3+ZJ4vMP68tYg83xIe+7a4PF9CvlGPyJuXbYGqJ50siAtq6snL3hl52TeoRxSZR6+zQ2QefaY/4fGiuj3RdEXVPdDZ4ReOrkKXJ095RN0D1Nna5t711akwoeoKxz1xQdWcxpW+JJ6PdHntAKG6IrD8b6GfuWPqihSFrn0NKhdUbQhUI3lx1xWx1yXWtq3dDmDx3EfUgUkSna7GVQdGr0cE6aIIXL9fjyiibk9d62eVxlfy7LRpKp3lIuv2fJeumDpLXDea9nF0FfqpCFlnKdIOYJjvIupiJVyf7KyLRbR1yHQLzgyDa/qzdcx05WR1WR2zCoMrAcsAYwe4vO6crhKNUc4fWHfuwaw7dy07wMV1AsGxHlcnEHCmzU/oGxRWafHXdQRLaoOgy6jreB9R1/FSvZdOoNHtaTSg+zqcFqiFPvmlsELV63ACk/Zbg6vDeWndVFLQycqaIO+rmwqk+NJeN/UQXyTrpgKtVxwCMLjyi+VXOfLkns9cdW7BWeoj56Fgky0APULherFcDjlSnycZM6EamyXohDTKn9+wLnFN1giv95OtjjQUd+J87fteLIMrfVZE0yV7YK4cMuiiOdJCPyxNqIbZcXCgKzG/Fzc9pFOGwjW2HpHkXJii36p9NhRATQzn+1tD3fzQeIF3JbZOu395EyNJCB/9I5tZV99A9e9a8EDr4oLcsxddVx9NV23mMfvbF4BquxNmVNtYDGlMb/bl9yCk3npENd3GkaWKUp5DpZbNOetDujizOgCmaFzj7hmJidU6EabfM2INb9mtK+2ekXZo28RP5OiDDN4zErIDaOcvb10hVxsxHapd9D1v+6d7YVZ2N1TDsbjG2QHiq0t0rUvvO0EtXV7Bt+fZbvf4eZ17fPB02a4+6drjdjMcjYZzW7Zu13INamVdieG2ujwP0VfjJ6mtT9s2Xahf98MqX1q/xUyHatwBiWrwnqxAPaLgXWEHs55x00JHFSdn141195rZpg1LDdYlC/oOc6/ZyQSp+LzXbLK3oVrukpq1yHvoxI7XoUZKQRUIcvU8xE4mmE7vjX1509qsTLeiAGokYeP2snsDw3PNpTN1bdvavL6yt+Y61DJqKS4oztQYXY+orAzu2yWBOTIGM+NzrDiASvv4mmjb0lrt2IVrRxM9XIKq3U0Krys171Ed+u9RNbSllgGohCMLKb5PM3q6RzWMq7pHNbGY78zFlcHz4O6QieEoPpHD7bix3HtrrcwJ22t+0b23OLlsaOE89p7il7Q231ZurQZ43hYDhdiN8h3gfvkKHmmMg1bfvFea1/br5k5UXX6vdIrKZYFFT0nwaA3TEHsbxz3ghbOc5cO6gFAj6xEFZF0NMse7O9aCrhdwpnmCUPcSNGWsvzU0y7vXezvUq9YHgJsl55iQWfMbO07hPCPZevo1f/3zsJ2PptPJgCkr3Y3rA0A5u2AYkxxcvE3A6t95mLofUstW/CZdVuYNecCQBtisWh7gFDp15I2imXdU3qiUovswHtFTYTydDDwbyoAZr8+6MB7xRxVfdACRaUPwSuwh0aFyJcJVyJGU5RwDNYSrgoqrS1wBqUzV6zpnU5bKQQwEAG2ps9qxrS6xA+o17QAMnDxwpkYGhPmO/bb6ACAY9Q5JF0yk/1G6NDtACoTS/rAI6HoOi49uHQK6ZgweQWOFkiXkyMA1oi5xkepK7EdmiS8yf1iAdfhY+R8UvrQcgesxnwjxuhKY43mqA+MuOU2MqP4HxEcIQ72mvgHdNXWNkssgDWPz6+oRwWC8iVcuH+kCht3Rr6tHBH3yc5oiKgcZob+hqMYcAzUiD5GqmB0qeiCMZz9Ugp3yIr0VTP5Rmf0PINgRhOgwDvw8LYB6BiLTQXigBnFV8xku3wGq5i05V8/sIUcUZjlxzG0zIajXrUtcgFf/GlreogOrusskgF+mbxACTUd1EAPjzCbOov9G3/CdreGaegjZAZIaWrCa2leP6MJApkA9oqSuVXAQE51EDpXdEOkie+qaG1W/VV4D4fKPclYh58swHkIlCNPSMy4JhJrIeCEih6gKDhJDfqgYXJOIekSp4Uz5q9ipU9IYvrINMaF+U355z5W45U3WEM8nH108hdNVrOG/0zec78AIOti5MaCtEWf0QF1v9kbfS65FuWYTuUAJS87W7NlQZQlHeWTkuBOI3AlJRrqdwAZm+NSAW6Ge7S+SyaGCnO2vc6iJ2l8oXNF1iQWPMS4YE2rHWpUl0TmX9bqAP35TY5gf3qYusVgGhvog24aB5V1zZo0Ka6+yaa4vl8VcaJTq2t2X+K08tnQYCB3NXolhiN80V6QLp3PV9vCEj9d100p3lkCgmdqv4PmsnFCD9wZeqh92MThKIZZhPEohtg4Vzki2u8+n2WL25CxtMyjdUM8igfBDQVzVxkeerdkF0VGyfVU4Y0yIGdwmHkA8DpZBxLUHFVL//U1zq3pEKTertIXb7GrM4Op2gOOK4fF1YMZhqJ66xChT4/frEWWV4Q8PtCeaYY1/17UfOuy9rgrCkXVgdjLQKAzVm4forUvsgBqfh1inEXVg5grEtTbNTfSNAwa1WQrR0d4nV2YG17cDaBoqaxx3ouptlUdB9RfJi7YDdPWIOoefigTSfIDHoZNnsfsjDRcD/LyXSUUxULPjEN27MBVi++Ag5a9E4mqrR+Q8q53Us4TlQ2+Kynha7jNMIqB6F5ddlfyuHcBY3jXlU2cVut3kJpvmZvqGhoEYajcW/eNx1FL+7+nq7ABqbneQ7uaKf0k3Vw6puSXZs055Yj9iwNrp8GH28lcsyreP8eN8OhCHMFm05nKopSKi7uwAiq7ODpBEQC3L/wDLSL6TUgXKQAAAAABJRU5ErkJggg==" vertex="1" parent="1">
          <mxGeometry x="286.46" y="883" width="67.07" height="73" as="geometry" />
        </mxCell>
        <mxCell id="93TaMooDdM3QIlw6AQbC-191" value="" style="shape=image;verticalLabelPosition=bottom;verticalAlign=top;imageAspect=0;aspect=fixed;image=data:image/png,iVBORw0KGgoAAAANSUhEUgAAANcAAADqCAMAAAAGRyD0AAAAilBMVEX///8AAADu7u7t7e34+Pjs7Oz6+vrz8/P19fX+/v78/Pzx8fHv7+/Hx8fZ2dnQ0NCYmJihoaE9PT2+vr4qKirf39+xsbFPT0/ExMRwcHBaWlqMjIxTU1Orq6tpaWnOzs6Pj4+Dg4NGRkY1NTUtLS15eXliYmIODg4aGhojIyN1dXVAQEClpaUXFxcb68uJAAAZJElEQVR4nNUdZ3vjLIx4gY3jrDppm92Rttfe//97L5gsxBJp0uvLfTgeSmTJBkloQYhoVZokKZM9moheKTqlGEqoHGLyj5XsySEuO5kcKro/Nsvh6unu7a3Xe/sYP86Xa5LROkm/B7UWQ7XsFHIokz0uQURAJRdjIIYG2/ee0RbDlvL/LV2c1V/PJlGq7Sa/jq70bG4K5uaiozBIWL7566JKtvGkjIfqpUv08ghcSSVawUVjssdkT3Yqfag4DNFuPl1++KiS7WlNaBzU7Dgkf0jLw1B2GOIlHleSiqZeV56mefe6EjGkXpcc2r8u0ZOdUgyx9jFElWx/eBTUfP8RRK/svqPoqY8g/1gdhnC4piSJXd41+8JQJdpH/8qbBr8Vk2i66uQPkizRNgrEv6DrtA5l7/htEzVXNH3FkPYJT1avt8pqDNRKrrDTOiT6OkzNdRjCNSVMtkw2reMYqvKXGLJ6vRnLwlDPerihMK4k6nXxNsgHYRtHfYQcfIT80k9LYpY3b+9iyRJf7FfIZd/cJBnHkyX2GGH/ii7z25aWb8t2l5DV6w0rH1SLUKrP12EeXIc2qISKxgrRMtnLZI/Zh6qRA++359ni8XHx5Nx7a+KGSmWnOGKBGwriSqX8MtSzNElN9YwPrDjfbQdNnjH5kniztH/R58wJ1a305ThV0g41Qi4z2+YaTwU2db1f3hlljVUfnl9n09xC32C2VTgsIAac5VvLxOYf6hu5VXzst22SvxnIPjXdD+XOz08aqjhumhttZ4dq0XvzM6F0BvWoCiNw7fSNshQnpUQsJSa6giOLXimbPlSRoYHrH/EOeV3XXM4q5KxM9mjNWnPJrrkVquiJTk1lJ5NDhexZoYoeQeIqaXJtW/2sVlbGN3h1LwNODcJWHSzbCfBy+eU9V+KWN5kYiBIPBnVlGD4aYkL993YAAk+Sz+rnTgxaSNf8h7+XXJ+VWLw1kz1WH9ZsN0T2Q7yFXGNACznrsBPKQs7P5JDaCQSyz+fKgJoch+T+KjM55IeKwVVBRfLDqfn2XZxrL0HrT/gm+Hf4oc8OYOWHOPm1AkgWQUlD4Y4cst8nlzPA3+ZhDOp6of/mkf40XWGdC3KBfL9tc48mZ3wwjtUPfVDR+qE4Mx8UYtFTCrFs50PlvY7hWOnn4o9KzT6AYEcQosM4+MgNgHoGItNBeKAGcVXzcXYANtcx3NDAtlUgXvVfTUjADhBiBle3A7AHgCHFSBoC7IyjX2cHgAflvEbRBTbY5rfZAZJ0pmN4shxpJ3Zoauzrv/oTsgOgoGLtAAibXAE4wF9WYCx9BThg76qftB867L37ZaBeF9M9XR9OD4Gcf/wIrNHpemQ6VPdH8EEN4RqjbwC63nESFNK1Y79N3yiATR5JF1iHrz9KF0rvBacUqm1b4Kk6LiK21n81pxi9NwQVq/ee/JVlVZXAB7gfKoDaey+nFfKPfO9GLDsQmewdPYvwEPBFdKjKs9iBkM7JUvkrQ1BDuB78lWAZWM9qbKtjOPTK5YPSR8CvJj/qX8Ysb7rUMZwxlFwGUi8PbJry6N+hvP4RfcMw9QqFI0wXPAQ4MBAdnpFyMPnarh4Xi91qO1pO8oJdg66ADK+h22vIEB4CoPauINS9ZpAwtt4YoSB/t2s7VKy+IXthHgPNNiR4YudAeolNab6CPK0pHboiQbaDAkLF4MpzvB0AWmFGQUkDzwC9hhtQKWeN1wv/uIZL9sr2efjye3WALgqOor0ZN6Fm7SuEC9usr+ZfxQ5gwQDwtt7j3g5M7Gw2yaHHdslMqEvT5m+2XcPiRUIi/XqHMB7RUzE7sulDGTS09Tal/KUSi6KzD+MRvU7YZtCA1UsYgEpSY46jjRjbhxyhcBVzaPeaMWpMacQ3LF3bVoywDZy9pQAq7eNDC1YsWuXqGkYmGB9M8g778q6hPUS0ptahliY8T/vMs1vI5W6u6ft5La100RSyQvG5GIC6NKZ4292AXkQXQtYZLLHXe25kmBAI46n6Zrzle1vrUCPJEhAaupfLGFwla8Eew8nW8rhVS4rsdAwvKtLaXOfLSoMK7ZGY9iFUqwiTgd8OcGY2SRJozFZttxYsldHuh1Uzgt4GNUeH6ogsCLRxwA6gmXhi4g9r6nji7HWzGY6G24Xj7+9cg1q1lmhnRHu4WfyhZYth2n2pQSWusJ2358eHh92TMwZryq5tBziIj77rkb62ZDpUO4f/+3Av+V3FMj6Y7OyKSFvj7QCnAJ2qKCoQs6MNCdleREkd1UZEg8pymzx+WdZqWlYVQlspm7lNyZ+RColrQYBMSP1uGhZN2AhAhTYF2d6Gmb64Us5ayzxpSkDiCukKmbmySBa9BFCNY5loi6YwNw0nfZO9fFS3y3cYYJTw4wsuAVTL59pSbmcGuRlK/BVtB8CH8Vge52ifDQdQEyOwQPqdXYdgBk9HvY8CGXLU8XkVjCZ7Z8tA8hg5dMY7u09bU26+c2sbWqAasfebw4JJOmQlK08OH4Hnhkq2zJC4xsivAwZlg4jznTW2TQO/wAMDG0E7rWY5hPqZoXC9jC6BwTSgMzxPCmqhC+I5pol/gxvxS4Pb0aUwmHq22WKSURtUI4hxQENGXHioniPp4pzXtOzCeERvH8Yj/pVdGI8Y2ofxiJ4KORKdLoynYOutNUlgPGxlKpEFKmcAyzmDUNnhQaUaIgmA/oTCVQVGXhzWWN5Dg9LT14Ax7goOKnRu+JdaoWrKEYNPGNQofuhf3iRgvqMl4FhrFSzvgAq218YB9XxxcWgOn9Lb5lcqDOChrO+1pAMu0CLoSqAQ27IL4w/zmIzBDBwk+97gIJ1tLIgL6llwUEoBr1kxDK6dPp8do3GOnUIfAjE7p6EScMX7Up+lQSW6+e2VuKBqQ2Ah7goMrrF5iIbnHqySCfcEBwHlcJTh4gH0J8zK2+Qhgk0DDv97uuybBvC2Jc4oCJb6OLutXN5jADxIXrqoblhE0gW828/s+nYAi1sNGCu865DqTqEp8zjrTuuw0r9yR1fYDnAywBVZVgCbnDZUHIZOMTuCbwC67it9lgai3GpzR6ULqjYE6coRuHYEfiNts4aaUd/rMdX54ZC4oGrBQZX+6sZ5gsCVBJe3Xy5b6PJsGj0ZpFNhg3I5yXSVZpbWP6BvQHerny5dxL7i6AJ8fhehb5gaaonSe0nCgH8YrEMAVdejdsQF9ZwZcBCOtGIYXIkK45G6vwrjkbp/F7MjdX8VxiN1f21InSi6MB4jiJceQZhQqW6Yf86pA6o8uuyHjEymOcHgivQvS6XPnh6y1Z96Tz2e4DqHk11Qz5U+cGKYYnD9nlzm4rlgf21az6apc137f2AIuQwNji0G12/QxWjRfllcKDOZculgBtBB23AvXd33AgLyjqPpQuYQgMMHWzqztBf3jNYWqAkMKxAfLJTvAD/XCoVrx3Ui7AAHCybNzbzE8/YxtUJtoUFkEAoOotCCOOE4u2hoedvkV8WX3uo2irKSa1AFTPNd3FV++WWYvd+72P0byeXWsC/b2mzNzjQDTiY2Y+rKu8FN//orweEK6cLYAdC+ok26t8+L//sOL+2ceQSN6bxpCA5XFd+rHGMyEugQHKQP0eIQs8PKLKIOzKLtAo2yojFDOk6EMfUgleF/FhxkGnt7C4LENdYOEFkH5qMRb5XmZvzNWVtl1npENTeCkYQk5zeqR9Q6i3w5Wj9LRgFb/kunLINNQxpLMadHdqN6RPF1YHojREWc1SCjiUYXtXysTo5fVI8oVF4muaAODK4tpkqUylA/Rgb2eMs5w+IaWY/oojow2PY0nPYH6/vp0BXf8UIyNK6KJ+LsANRTvuwtxut8YWsicFV04WSdXXX6+DOR/vwsayfLx1tSN6URuEbQZaT8y7aY0Gy/bcX5jtCpNfDrGm3DLsoLALGlZzF9h/B1y+aa3WfcSLkP87+nfnT8ocyygtYFD66EHGW1Ie7PhxjNLFX0hqw0xX2Zbf0Y3i0FTFOVCJBVHhQeBK4R9YiS3BCu7/fMUjlIvi4v0puE1WL9DIIngvO2VfwBfVZEy2VmMI2PhjmXtztw8qFVOyQjOepQoNqQ3ijfgRpRaG8N9WxbRxTVeH0G1XIcs7e3CbsoDxGRy8KMjT4ofMdVaj3LjLgOdY1SNhctNQ/swbybjscEeacRJzNkAVXS1IQe9vacM6hGPo+ldRFxN6pvY0TXPWVJgK4M8oW1AVViQAOZN9uU3rAekZHAMOBB1R+uxMrxZq0BlKq9zVtW37IeEQWHyV0RzvCswObpO95swtLpznL8eXucVJ0Uuixv1DSP1+fm8W6IwmXYp4cwnnPzeH00j8tIILh3NgRAVQ8qu5rCxeBrNz4S9/Yy207k1zGhBnHdQ8X5YYE8eu9el4MfHlyANXgZY089oirnjJW0bQb3k/v7fpspLG5ej8h49aHl3Q0BC1SOSd7tPCXEA/WqcnmrYzhB0VUAZtPn/7guse7elXOBlSxV23YvhF3FQhhQOr5oTJ2KYAkSF67ndgBfGI8Ygj4NXMhRBjbYsPA/6LJAJscQsbwucng3h9cFDAAfDrMJNDUCbrMhgSiDywJI7FAJZnkDDvDcxckETY1lo6sc219Xj+hSut7+NV3mty096/A9S1JEfYDSXIeX1CO6sD7A9/hG5tnhl/MNH1Qs30DxeRBU0x5fl8mRUyefX36DzzvrETn5PEoug8PENLi8bXJ58KNyGUUXOLH/QWHAgHk48etRyVGP6mb9SD0iaIfp6Aq42KHeu/DW4eSUESb03r5QewcdrSkukMml9x7SDaDuX/vOKVNmnFNq45wCDI5DYn2QzGugBWmmD59HZ837eDfqiy9kgRrE9XBOAcvbYQcA58ox5lwJ7MMDA+qhVEfW31oMOB8PffKNcyVq2xp2gHsalKDQOOraismX0/D9Psxvawcw7DZ3LGS3MQpP39vfbMAiNb+p3ca0s21DdratgeJjDqGWmJCJC+1sSLuogUDfZRdVLkArwvNUh4qMb5GlHG5Uj4ga9Wp6A+Z5XQ479sfkHCo6vmXKkhvZ57l5XcCbDBOK9js8Nge/QxasRXRqc15eQBfOT2Sa+MRrtKd7ez/ENu/8RHmUY3PVIRbjJ8L6ygqLi3HblRkEfr2gafrvMCmqSaQnelVE+vU6HmP6Ni3XilkCiMZTRhOwbcNXufWe7xH+BtB2tdMPa7sCTdGF4p1Wv/nnND/3m+fL2DgjdHu9wG+Om2v3w/3dTQeJNDk3k1GECzK+jeLjHHBna3jw+Om2jsD1F8URva2+Jv3+ZDpy1jerIuKILHYAR40fGfcVH86GbC/DLkqIZF3cV2MPWPzDblGP6IZxerMJY1zbNNXIJgjW+Di9OLrMSPFQW2dpyO8vtCt5Vy6Iq2wty/EJH1eJsgNcHAd7J+Ngmb98445ai+Ql1PI+JrY4WHddYjMWWNYahLHA3RDJ3CHIRlu03Q+zrO+WANuYuOWZLW7ZhiuUXyni2gh00NZGXtfSQaW1Sw2ZZ3VMnPnAFmd+hXpEEXkBi/O8gJraCiwF8wIMDfrPhXkBKLoweRx3EyOPozF5zkt8HkcSp29E5d2kobybO2veTWmkFITyblIKz7NTZN4N8vwlhmD+19J5gtr1mThjmVBrWE51xSBUKh90vmngERWbJxUpv0Bem0VjXEwzZ75eAoTEwJ/X1i0uEFVwRzG4Xj8PUa0MB10gv3KHKRoKP1iDputb5d+3+lO9eaMc8O0pxRhxwQ5D5o3+ZJ4vMP68tYg83xIe+7a4PF9CvlGPyJuXbYGqJ50siAtq6snL3hl52TeoRxSZR6+zQ2QefaY/4fGiuj3RdEXVPdDZ4ReOrkKXJ095RN0D1Nna5t711akwoeoKxz1xQdWcxpW+JJ6PdHntAKG6IrD8b6GfuWPqihSFrn0NKhdUbQhUI3lx1xWx1yXWtq3dDmDx3EfUgUkSna7GVQdGr0cE6aIIXL9fjyiibk9d62eVxlfy7LRpKp3lIuv2fJeumDpLXDea9nF0FfqpCFlnKdIOYJjvIupiJVyf7KyLRbR1yHQLzgyDa/qzdcx05WR1WR2zCoMrAcsAYwe4vO6crhKNUc4fWHfuwaw7dy07wMV1AsGxHlcnEHCmzU/oGxRWafHXdQRLaoOgy6jreB9R1/FSvZdOoNHtaTSg+zqcFqiFPvmlsELV63ACk/Zbg6vDeWndVFLQycqaIO+rmwqk+NJeN/UQXyTrpgKtVxwCMLjyi+VXOfLkns9cdW7BWeoj56Fgky0APULherFcDjlSnycZM6EamyXohDTKn9+wLnFN1giv95OtjjQUd+J87fteLIMrfVZE0yV7YK4cMuiiOdJCPyxNqIbZcXCgKzG/Fzc9pFOGwjW2HpHkXJii36p9NhRATQzn+1tD3fzQeIF3JbZOu395EyNJCB/9I5tZV99A9e9a8EDr4oLcsxddVx9NV23mMfvbF4BquxNmVNtYDGlMb/bl9yCk3npENd3GkaWKUp5DpZbNOetDujizOgCmaFzj7hmJidU6EabfM2INb9mtK+2ekXZo28RP5OiDDN4zErIDaOcvb10hVxsxHapd9D1v+6d7YVZ2N1TDsbjG2QHiq0t0rUvvO0EtXV7Bt+fZbvf4eZ17fPB02a4+6drjdjMcjYZzW7Zu13INamVdieG2ujwP0VfjJ6mtT9s2Xahf98MqX1q/xUyHatwBiWrwnqxAPaLgXWEHs55x00JHFSdn141195rZpg1LDdYlC/oOc6/ZyQSp+LzXbLK3oVrukpq1yHvoxI7XoUZKQRUIcvU8xE4mmE7vjX1509qsTLeiAGokYeP2snsDw3PNpTN1bdvavL6yt+Y61DJqKS4oztQYXY+orAzu2yWBOTIGM+NzrDiASvv4mmjb0lrt2IVrRxM9XIKq3U0Krys171Ed+u9RNbSllgGohCMLKb5PM3q6RzWMq7pHNbGY78zFlcHz4O6QieEoPpHD7bix3HtrrcwJ22t+0b23OLlsaOE89p7il7Q231ZurQZ43hYDhdiN8h3gfvkKHmmMg1bfvFea1/br5k5UXX6vdIrKZYFFT0nwaA3TEHsbxz3ghbOc5cO6gFAj6xEFZF0NMse7O9aCrhdwpnmCUPcSNGWsvzU0y7vXezvUq9YHgJsl55iQWfMbO07hPCPZevo1f/3zsJ2PptPJgCkr3Y3rA0A5u2AYkxxcvE3A6t95mLofUstW/CZdVuYNecCQBtisWh7gFDp15I2imXdU3qiUovswHtFTYTydDDwbyoAZr8+6MB7xRxVfdACRaUPwSuwh0aFyJcJVyJGU5RwDNYSrgoqrS1wBqUzV6zpnU5bKQQwEAG2ps9qxrS6xA+o17QAMnDxwpkYGhPmO/bb6ACAY9Q5JF0yk/1G6NDtACoTS/rAI6HoOi49uHQK6ZgweQWOFkiXkyMA1oi5xkepK7EdmiS8yf1iAdfhY+R8UvrQcgesxnwjxuhKY43mqA+MuOU2MqP4HxEcIQ72mvgHdNXWNkssgDWPz6+oRwWC8iVcuH+kCht3Rr6tHBH3yc5oiKgcZob+hqMYcAzUiD5GqmB0qeiCMZz9Ugp3yIr0VTP5Rmf0PINgRhOgwDvw8LYB6BiLTQXigBnFV8xku3wGq5i05V8/sIUcUZjlxzG0zIajXrUtcgFf/GlreogOrusskgF+mbxACTUd1EAPjzCbOov9G3/CdreGaegjZAZIaWrCa2leP6MJApkA9oqSuVXAQE51EDpXdEOkie+qaG1W/VV4D4fKPclYh58swHkIlCNPSMy4JhJrIeCEih6gKDhJDfqgYXJOIekSp4Uz5q9ipU9IYvrINMaF+U355z5W45U3WEM8nH108hdNVrOG/0zec78AIOti5MaCtEWf0QF1v9kbfS65FuWYTuUAJS87W7NlQZQlHeWTkuBOI3AlJRrqdwAZm+NSAW6Ge7S+SyaGCnO2vc6iJ2l8oXNF1iQWPMS4YE2rHWpUl0TmX9bqAP35TY5gf3qYusVgGhvog24aB5V1zZo0Ka6+yaa4vl8VcaJTq2t2X+K08tnQYCB3NXolhiN80V6QLp3PV9vCEj9d100p3lkCgmdqv4PmsnFCD9wZeqh92MThKIZZhPEohtg4Vzki2u8+n2WL25CxtMyjdUM8igfBDQVzVxkeerdkF0VGyfVU4Y0yIGdwmHkA8DpZBxLUHFVL//U1zq3pEKTertIXb7GrM4Op2gOOK4fF1YMZhqJ66xChT4/frEWWV4Q8PtCeaYY1/17UfOuy9rgrCkXVgdjLQKAzVm4forUvsgBqfh1inEXVg5grEtTbNTfSNAwa1WQrR0d4nV2YG17cDaBoqaxx3ouptlUdB9RfJi7YDdPWIOoefigTSfIDHoZNnsfsjDRcD/LyXSUUxULPjEN27MBVi++Ag5a9E4mqrR+Q8q53Us4TlQ2+Kynha7jNMIqB6F5ddlfyuHcBY3jXlU2cVut3kJpvmZvqGhoEYajcW/eNx1FL+7+nq7ABqbneQ7uaKf0k3Vw6puSXZs055Yj9iwNrp8GH28lcsyreP8eN8OhCHMFm05nKopSKi7uwAiq7ODpBEQC3L/wDLSL6TUgXKQAAAAABJRU5ErkJggg==" vertex="1" parent="1">
          <mxGeometry x="735.97" y="1023.5" width="67.07" height="73" as="geometry" />
        </mxCell>
        <mxCell id="93TaMooDdM3QIlw6AQbC-1" value="IOT&lt;br&gt;Device" style="whiteSpace=wrap;html=1;aspect=fixed;" vertex="1" parent="1">
          <mxGeometry x="-150" y="310" width="80" height="80" as="geometry" />
        </mxCell>
        <mxCell id="93TaMooDdM3QIlw6AQbC-7" value="" style="endArrow=classic;html=1;" edge="1" parent="1">
          <mxGeometry width="50" height="50" relative="1" as="geometry">
            <mxPoint x="-80" y="339.5" as="sourcePoint" />
            <mxPoint x="-10" y="340" as="targetPoint" />
          </mxGeometry>
        </mxCell>
        <mxCell id="93TaMooDdM3QIlw6AQbC-13" value="kAFKA" style="shape=cylinder;whiteSpace=wrap;html=1;boundedLbl=1;backgroundOutline=1;rotation=90;" vertex="1" parent="1">
          <mxGeometry y="300" width="60" height="80" as="geometry" />
        </mxCell>
        <mxCell id="93TaMooDdM3QIlw6AQbC-24" value="POI &lt;br&gt;validator" style="rhombus;whiteSpace=wrap;html=1;" vertex="1" parent="1">
          <mxGeometry x="180" y="300" width="80" height="80" as="geometry" />
        </mxCell>
        <mxCell id="93TaMooDdM3QIlw6AQbC-25" value="&lt;span class=&quot;im&quot; style=&quot;color: rgb(80 , 0 , 80) ; font-family: &amp;#34;arial&amp;#34; , &amp;#34;helvetica&amp;#34; , sans-serif ; font-size: small&quot;&gt;&lt;p class=&quot;m_4701859307758761335paragraph&quot; style=&quot;margin: 0in 0in 0.0001pt ; font-size: 11pt ; font-family: &amp;#34;calibri&amp;#34; , sans-serif ; vertical-align: baseline&quot;&gt;&lt;span class=&quot;m_4701859307758761335eop&quot;&gt;&amp;nbsp;&lt;/span&gt;&lt;span class=&quot;m_4701859307758761335normaltextrun&quot;&gt;Design a system to handle POI data transmitted from moving cars - Cars are able to capture image of surrounding, quickly recognize image, encode POI data into some format &amp;amp; send it over the air to cloud&lt;/span&gt;&lt;span class=&quot;m_4701859307758761335eop&quot;&gt;&amp;nbsp;&lt;/span&gt;&lt;span style=&quot;font-size: 9pt ; font-family: &amp;#34;segoe ui&amp;#34; , sans-serif&quot;&gt;&lt;u&gt;&lt;/u&gt;&lt;u&gt;&lt;/u&gt;&lt;/span&gt;&lt;/p&gt;&lt;p class=&quot;m_4701859307758761335paragraph&quot; style=&quot;margin: 0in 0in 0.0001pt ; font-size: 11pt ; font-family: &amp;#34;calibri&amp;#34; , sans-serif ; vertical-align: baseline&quot;&gt;&lt;span class=&quot;m_4701859307758761335normaltextrun&quot;&gt;-Check if the collected packets contain POI name &amp;amp; a valid category - rule based validation&lt;/span&gt;&lt;span class=&quot;m_4701859307758761335eop&quot;&gt;&amp;nbsp;&lt;/span&gt;&lt;span style=&quot;font-size: 9pt ; font-family: &amp;#34;segoe ui&amp;#34; , sans-serif&quot;&gt;&lt;u&gt;&lt;/u&gt;&lt;u&gt;&lt;/u&gt;&lt;/span&gt;&lt;/p&gt;&lt;p class=&quot;m_4701859307758761335paragraph&quot; style=&quot;margin: 0in 0in 0.0001pt ; font-size: 11pt ; font-family: &amp;#34;calibri&amp;#34; , sans-serif ; vertical-align: baseline&quot;&gt;&lt;span class=&quot;m_4701859307758761335normaltextrun&quot;&gt;-Persist them for downstream systems to consume&lt;/span&gt;&lt;span class=&quot;m_4701859307758761335eop&quot;&gt;&amp;nbsp;&lt;u&gt;&lt;/u&gt;&lt;u&gt;&lt;/u&gt;&lt;/span&gt;&lt;/p&gt;&lt;p class=&quot;m_4701859307758761335paragraph&quot; style=&quot;margin: 0in 0in 0.0001pt ; font-size: 11pt ; font-family: &amp;#34;calibri&amp;#34; , sans-serif ; vertical-align: baseline&quot;&gt;&lt;u&gt;&lt;/u&gt;&amp;nbsp;&lt;u&gt;&lt;/u&gt;&lt;/p&gt;&lt;/span&gt;&lt;p class=&quot;m_4701859307758761335paragraph&quot; style=&quot;margin: 0in 0in 0.0001pt ; font-size: 11pt ; font-family: &amp;#34;calibri&amp;#34; , sans-serif ; color: rgb(34 , 34 , 34) ; vertical-align: baseline&quot;&gt;&lt;strong&gt;Points to be looked at&lt;/strong&gt;&lt;br&gt;Nature of the problem : Realtime stream processing + Event based design&lt;br&gt;Processing approach– data format suitable for transferring over-the-air preferably serialized format, streaming transport+ distributed storage like Kafka, processing unbounded stream, scalability, low latency processing to process messages exactly once&lt;br&gt;DB storage - distributed, scalable with low latency reads &amp;amp; writes&lt;br&gt;Reporting - close-to-realtime stats of POIs processed/unprocessed/skipped by the system&lt;br&gt;Monitoring of system&lt;/p&gt;" style="text;html=1;strokeColor=none;fillColor=none;align=left;verticalAlign=middle;whiteSpace=wrap;rounded=0;" vertex="1" parent="1">
          <mxGeometry x="-280" y="-90" width="1200" height="120" as="geometry" />
        </mxCell>
        <mxCell id="93TaMooDdM3QIlw6AQbC-26" value="" style="endArrow=classic;html=1;entryX=0;entryY=0.5;entryDx=0;entryDy=0;exitX=1;exitY=0.5;exitDx=0;exitDy=0;" edge="1" parent="1" source="93TaMooDdM3QIlw6AQbC-24">
          <mxGeometry width="50" height="50" relative="1" as="geometry">
            <mxPoint x="210" y="335" as="sourcePoint" />
            <mxPoint x="320" y="340" as="targetPoint" />
            <Array as="points" />
          </mxGeometry>
        </mxCell>
        <mxCell id="93TaMooDdM3QIlw6AQbC-59" style="edgeStyle=orthogonalEdgeStyle;rounded=0;orthogonalLoop=1;jettySize=auto;html=1;exitX=0.5;exitY=0;exitDx=0;exitDy=0;" edge="1" parent="1" source="93TaMooDdM3QIlw6AQbC-28" target="93TaMooDdM3QIlw6AQbC-24">
          <mxGeometry relative="1" as="geometry" />
        </mxCell>
        <mxCell id="93TaMooDdM3QIlw6AQbC-60" style="edgeStyle=orthogonalEdgeStyle;rounded=0;orthogonalLoop=1;jettySize=auto;html=1;exitX=0.5;exitY=0;exitDx=0;exitDy=0;" edge="1" parent="1" source="93TaMooDdM3QIlw6AQbC-28">
          <mxGeometry relative="1" as="geometry">
            <mxPoint x="220" y="380" as="targetPoint" />
          </mxGeometry>
        </mxCell>
        <mxCell id="93TaMooDdM3QIlw6AQbC-28" value="RULE based validation" style="text;html=1;strokeColor=none;fillColor=none;align=center;verticalAlign=middle;whiteSpace=wrap;rounded=0;" vertex="1" parent="1">
          <mxGeometry x="200" y="390" width="40" height="20" as="geometry" />
        </mxCell>
        <mxCell id="93TaMooDdM3QIlw6AQbC-29" value="kAFKA" style="shape=cylinder;whiteSpace=wrap;html=1;boundedLbl=1;backgroundOutline=1;rotation=90;" vertex="1" parent="1">
          <mxGeometry x="330" y="300" width="60" height="80" as="geometry" />
        </mxCell>
        <mxCell id="93TaMooDdM3QIlw6AQbC-31" value="" style="ellipse;whiteSpace=wrap;html=1;aspect=fixed;" vertex="1" parent="1">
          <mxGeometry x="380" y="320" width="10" height="10" as="geometry" />
        </mxCell>
        <mxCell id="93TaMooDdM3QIlw6AQbC-33" value="" style="ellipse;whiteSpace=wrap;html=1;aspect=fixed;" vertex="1" parent="1">
          <mxGeometry x="380" y="350" width="10" height="10" as="geometry" />
        </mxCell>
        <mxCell id="93TaMooDdM3QIlw6AQbC-34" value="" style="endArrow=classic;html=1;" edge="1" parent="1" source="93TaMooDdM3QIlw6AQbC-44" target="93TaMooDdM3QIlw6AQbC-42">
          <mxGeometry width="50" height="50" relative="1" as="geometry">
            <mxPoint x="390" y="320" as="sourcePoint" />
            <mxPoint x="790" y="220" as="targetPoint" />
            <Array as="points">
              <mxPoint x="680" y="310" />
            </Array>
          </mxGeometry>
        </mxCell>
        <mxCell id="93TaMooDdM3QIlw6AQbC-35" value="" style="endArrow=classic;html=1;entryX=0;entryY=0.5;entryDx=0;entryDy=0;" edge="1" parent="1" target="93TaMooDdM3QIlw6AQbC-38">
          <mxGeometry width="50" height="50" relative="1" as="geometry">
            <mxPoint x="390" y="356" as="sourcePoint" />
            <mxPoint x="460" y="356" as="targetPoint" />
          </mxGeometry>
        </mxCell>
        <mxCell id="93TaMooDdM3QIlw6AQbC-38" value="POI&lt;br&gt;Engine" style="shape=hexagon;perimeter=hexagonPerimeter2;whiteSpace=wrap;html=1;fixedSize=1;" vertex="1" parent="1">
          <mxGeometry x="520" y="390" width="120" height="80" as="geometry" />
        </mxCell>
        <mxCell id="93TaMooDdM3QIlw6AQbC-42" value="casandra" style="shape=cylinder;whiteSpace=wrap;html=1;boundedLbl=1;backgroundOutline=1;" vertex="1" parent="1">
          <mxGeometry x="730" y="270" width="60" height="80" as="geometry" />
        </mxCell>
        <mxCell id="93TaMooDdM3QIlw6AQbC-43" value="" style="endArrow=classic;html=1;entryX=0;entryY=0.7;entryDx=0;entryDy=0;" edge="1" parent="1" target="93TaMooDdM3QIlw6AQbC-42">
          <mxGeometry width="50" height="50" relative="1" as="geometry">
            <mxPoint x="640" y="430" as="sourcePoint" />
            <mxPoint x="690" y="380" as="targetPoint" />
          </mxGeometry>
        </mxCell>
        <mxCell id="93TaMooDdM3QIlw6AQbC-44" value="Error message processor" style="shape=hexagon;perimeter=hexagonPerimeter2;whiteSpace=wrap;html=1;fixedSize=1;" vertex="1" parent="1">
          <mxGeometry x="540" y="280" width="120" height="80" as="geometry" />
        </mxCell>
        <mxCell id="93TaMooDdM3QIlw6AQbC-45" value="" style="endArrow=classic;html=1;" edge="1" parent="1" target="93TaMooDdM3QIlw6AQbC-44">
          <mxGeometry width="50" height="50" relative="1" as="geometry">
            <mxPoint x="390" y="320" as="sourcePoint" />
            <mxPoint x="730" y="310.81081081081084" as="targetPoint" />
          </mxGeometry>
        </mxCell>
        <mxCell id="93TaMooDdM3QIlw6AQbC-47" value="" style="shape=internalStorage;whiteSpace=wrap;html=1;backgroundOutline=1;" vertex="1" parent="1">
          <mxGeometry x="864" y="160" width="80" height="80" as="geometry" />
        </mxCell>
        <mxCell id="93TaMooDdM3QIlw6AQbC-48" value="" style="endArrow=classic;html=1;entryX=0;entryY=0.75;entryDx=0;entryDy=0;" edge="1" parent="1">
          <mxGeometry width="50" height="50" relative="1" as="geometry">
            <mxPoint x="790" y="280" as="sourcePoint" />
            <mxPoint x="860" y="210" as="targetPoint" />
          </mxGeometry>
        </mxCell>
        <mxCell id="93TaMooDdM3QIlw6AQbC-50" value="kAFKA" style="shape=cylinder;whiteSpace=wrap;html=1;boundedLbl=1;backgroundOutline=1;rotation=90;" vertex="1" parent="1">
          <mxGeometry x="730" y="390" width="60" height="80" as="geometry" />
        </mxCell>
        <mxCell id="93TaMooDdM3QIlw6AQbC-51" value="" style="endArrow=classic;html=1;entryX=0.667;entryY=1.013;entryDx=0;entryDy=0;entryPerimeter=0;" edge="1" parent="1" source="93TaMooDdM3QIlw6AQbC-38" target="93TaMooDdM3QIlw6AQbC-50">
          <mxGeometry width="50" height="50" relative="1" as="geometry">
            <mxPoint x="650" y="440" as="sourcePoint" />
            <mxPoint x="740" y="336" as="targetPoint" />
          </mxGeometry>
        </mxCell>
        <mxCell id="93TaMooDdM3QIlw6AQbC-52" value="" style="ellipse;whiteSpace=wrap;html=1;aspect=fixed;" vertex="1" parent="1">
          <mxGeometry x="780" y="415" width="10" height="10" as="geometry" />
        </mxCell>
        <mxCell id="93TaMooDdM3QIlw6AQbC-53" value="" style="ellipse;whiteSpace=wrap;html=1;aspect=fixed;" vertex="1" parent="1">
          <mxGeometry x="780" y="425" width="10" height="10" as="geometry" />
        </mxCell>
        <mxCell id="93TaMooDdM3QIlw6AQbC-54" value="" style="ellipse;whiteSpace=wrap;html=1;aspect=fixed;" vertex="1" parent="1">
          <mxGeometry x="782" y="435" width="10" height="10" as="geometry" />
        </mxCell>
        <mxCell id="93TaMooDdM3QIlw6AQbC-62" value="" style="endArrow=classic;html=1;entryX=0;entryY=0.5;entryDx=0;entryDy=0;" edge="1" parent="1" target="93TaMooDdM3QIlw6AQbC-24">
          <mxGeometry width="50" height="50" relative="1" as="geometry">
            <mxPoint x="60" y="340" as="sourcePoint" />
            <mxPoint x="110" y="290" as="targetPoint" />
            <Array as="points" />
          </mxGeometry>
        </mxCell>
        <mxCell id="93TaMooDdM3QIlw6AQbC-63" value="POI &lt;br&gt;validator" style="rhombus;whiteSpace=wrap;html=1;" vertex="1" parent="1">
          <mxGeometry x="180" y="280" width="80" height="80" as="geometry" />
        </mxCell>
        <mxCell id="93TaMooDdM3QIlw6AQbC-64" value="POI &lt;br&gt;validator" style="rhombus;whiteSpace=wrap;html=1;" vertex="1" parent="1">
          <mxGeometry x="180" y="250" width="80" height="80" as="geometry" />
        </mxCell>
        <mxCell id="93TaMooDdM3QIlw6AQbC-67" value="IOT&lt;br&gt;Device" style="whiteSpace=wrap;html=1;aspect=fixed;" vertex="1" parent="1">
          <mxGeometry x="-150" y="877" width="80" height="80" as="geometry" />
        </mxCell>
        <mxCell id="93TaMooDdM3QIlw6AQbC-68" value="" style="endArrow=classic;html=1;" edge="1" parent="1">
          <mxGeometry width="50" height="50" relative="1" as="geometry">
            <mxPoint x="-80" y="906.5" as="sourcePoint" />
            <mxPoint x="-10" y="907" as="targetPoint" />
          </mxGeometry>
        </mxCell>
        <mxCell id="93TaMooDdM3QIlw6AQbC-79" value="store processed and un processed data" style="endArrow=classic;html=1;entryX=0.017;entryY=0.9;entryDx=0;entryDy=0;entryPerimeter=0;exitX=0.75;exitY=0;exitDx=0;exitDy=0;" edge="1" parent="1" source="93TaMooDdM3QIlw6AQbC-188">
          <mxGeometry width="50" height="50" relative="1" as="geometry">
            <mxPoint x="519.5" y="853.75" as="sourcePoint" />
            <mxPoint x="752.3299999999999" y="853.25" as="targetPoint" />
            <Array as="points">
              <mxPoint x="510" y="853" />
            </Array>
          </mxGeometry>
        </mxCell>
        <mxCell id="93TaMooDdM3QIlw6AQbC-86" value="" style="endArrow=classic;html=1;" edge="1" parent="1">
          <mxGeometry width="50" height="50" relative="1" as="geometry">
            <mxPoint x="811.5" y="850" as="sourcePoint" />
            <mxPoint x="899.5" y="850" as="targetPoint" />
          </mxGeometry>
        </mxCell>
        <mxCell id="93TaMooDdM3QIlw6AQbC-88" value="POI data for monitoring" style="endArrow=classic;html=1;entryX=0.667;entryY=1.013;entryDx=0;entryDy=0;entryPerimeter=0;exitX=1;exitY=0.75;exitDx=0;exitDy=0;" edge="1" parent="1" source="93TaMooDdM3QIlw6AQbC-188">
          <mxGeometry x="0.1674" y="13" width="50" height="50" relative="1" as="geometry">
            <mxPoint x="522.5" y="960" as="sourcePoint" />
            <mxPoint x="731.46" y="1080.02" as="targetPoint" />
            <Array as="points">
              <mxPoint x="623" y="1020" />
            </Array>
            <mxPoint as="offset" />
          </mxGeometry>
        </mxCell>
        <mxCell id="93TaMooDdM3QIlw6AQbC-121" style="edgeStyle=orthogonalEdgeStyle;rounded=0;orthogonalLoop=1;jettySize=auto;html=1;exitX=1;exitY=0.5;exitDx=0;exitDy=0;entryX=0.025;entryY=0.588;entryDx=0;entryDy=0;entryPerimeter=0;" edge="1" parent="1">
          <mxGeometry relative="1" as="geometry">
            <mxPoint x="889.5" y="1060.04" as="targetPoint" />
            <mxPoint x="799.5" y="1060" as="sourcePoint" />
          </mxGeometry>
        </mxCell>
        <mxCell id="93TaMooDdM3QIlw6AQbC-92" value="" style="endArrow=classic;html=1;entryX=0;entryY=0.5;entryDx=0;entryDy=0;" edge="1" parent="1" source="93TaMooDdM3QIlw6AQbC-186">
          <mxGeometry width="50" height="50" relative="1" as="geometry">
            <mxPoint x="70" y="907" as="sourcePoint" />
            <mxPoint x="140" y="907" as="targetPoint" />
            <Array as="points" />
          </mxGeometry>
        </mxCell>
        <mxCell id="93TaMooDdM3QIlw6AQbC-95" value="&lt;span style=&quot;font-size: 27px&quot;&gt;Produce&lt;/span&gt;" style="text;html=1;strokeColor=none;fillColor=none;align=center;verticalAlign=middle;whiteSpace=wrap;rounded=0;" vertex="1" parent="1">
          <mxGeometry x="-150" y="640" width="40" height="20" as="geometry" />
        </mxCell>
        <mxCell id="93TaMooDdM3QIlw6AQbC-96" value="&lt;font style=&quot;font-size: 27px&quot;&gt;Collect-1&lt;/font&gt;" style="text;html=1;strokeColor=none;fillColor=none;align=center;verticalAlign=middle;whiteSpace=wrap;rounded=0;" vertex="1" parent="1">
          <mxGeometry x="-40" y="640" width="140" height="20" as="geometry" />
        </mxCell>
        <mxCell id="93TaMooDdM3QIlw6AQbC-97" value="&lt;font style=&quot;font-size: 27px&quot;&gt;Validate&lt;/font&gt;" style="text;html=1;strokeColor=none;fillColor=none;align=center;verticalAlign=middle;whiteSpace=wrap;rounded=0;" vertex="1" parent="1">
          <mxGeometry x="168" y="640" width="40" height="20" as="geometry" />
        </mxCell>
        <mxCell id="93TaMooDdM3QIlw6AQbC-98" value="&lt;font style=&quot;font-size: 27px&quot;&gt;Data&lt;/font&gt;" style="text;html=1;strokeColor=none;fillColor=none;align=center;verticalAlign=middle;whiteSpace=wrap;rounded=0;" vertex="1" parent="1">
          <mxGeometry x="-130" y="130" width="40" height="20" as="geometry" />
        </mxCell>
        <mxCell id="93TaMooDdM3QIlw6AQbC-99" value="&lt;font style=&quot;font-size: 27px&quot;&gt;Collect&lt;/font&gt;" style="text;html=1;strokeColor=none;fillColor=none;align=center;verticalAlign=middle;whiteSpace=wrap;rounded=0;" vertex="1" parent="1">
          <mxGeometry x="10" y="130" width="40" height="20" as="geometry" />
        </mxCell>
        <mxCell id="93TaMooDdM3QIlw6AQbC-100" value="&lt;font style=&quot;font-size: 27px&quot;&gt;Validate&lt;/font&gt;" style="text;html=1;strokeColor=none;fillColor=none;align=center;verticalAlign=middle;whiteSpace=wrap;rounded=0;" vertex="1" parent="1">
          <mxGeometry x="190" y="130" width="40" height="20" as="geometry" />
        </mxCell>
        <mxCell id="93TaMooDdM3QIlw6AQbC-101" value="&lt;font style=&quot;font-size: 27px&quot;&gt;Collect validated&amp;nbsp;&lt;br&gt;Result&lt;br&gt;&lt;/font&gt;" style="text;html=1;strokeColor=none;fillColor=none;align=center;verticalAlign=middle;whiteSpace=wrap;rounded=0;" vertex="1" parent="1">
          <mxGeometry x="340" y="130" width="40" height="20" as="geometry" />
        </mxCell>
        <mxCell id="93TaMooDdM3QIlw6AQbC-102" value="&lt;font style=&quot;font-size: 27px&quot;&gt;Process&lt;/font&gt;" style="text;html=1;strokeColor=none;fillColor=none;align=center;verticalAlign=middle;whiteSpace=wrap;rounded=0;" vertex="1" parent="1">
          <mxGeometry x="550" y="130" width="40" height="20" as="geometry" />
        </mxCell>
        <mxCell id="93TaMooDdM3QIlw6AQbC-103" value="&lt;font style=&quot;font-size: 27px&quot;&gt;Store&lt;/font&gt;" style="text;html=1;strokeColor=none;fillColor=none;align=center;verticalAlign=middle;whiteSpace=wrap;rounded=0;" vertex="1" parent="1">
          <mxGeometry x="720" y="120" width="40" height="20" as="geometry" />
        </mxCell>
        <mxCell id="93TaMooDdM3QIlw6AQbC-104" value="&lt;font style=&quot;font-size: 27px&quot;&gt;Analyze&lt;/font&gt;" style="text;html=1;strokeColor=none;fillColor=none;align=center;verticalAlign=middle;whiteSpace=wrap;rounded=0;" vertex="1" parent="1">
          <mxGeometry x="874" y="120" width="40" height="20" as="geometry" />
        </mxCell>
        <mxCell id="93TaMooDdM3QIlw6AQbC-106" style="edgeStyle=orthogonalEdgeStyle;rounded=0;orthogonalLoop=1;jettySize=auto;html=1;exitX=0.5;exitY=1;exitDx=0;exitDy=0;" edge="1" parent="1">
          <mxGeometry relative="1" as="geometry">
            <mxPoint x="220" y="977" as="sourcePoint" />
            <mxPoint x="220" y="977" as="targetPoint" />
          </mxGeometry>
        </mxCell>
        <mxCell id="93TaMooDdM3QIlw6AQbC-114" value="&lt;font style=&quot;font-size: 27px&quot;&gt;Process&lt;/font&gt;" style="text;html=1;strokeColor=none;fillColor=none;align=center;verticalAlign=middle;whiteSpace=wrap;rounded=0;" vertex="1" parent="1">
          <mxGeometry x="479.5" y="643" width="40" height="20" as="geometry" />
        </mxCell>
        <mxCell id="93TaMooDdM3QIlw6AQbC-115" value="&lt;font style=&quot;font-size: 27px&quot;&gt;Store&lt;/font&gt;" style="text;html=1;strokeColor=none;fillColor=none;align=center;verticalAlign=middle;whiteSpace=wrap;rounded=0;" vertex="1" parent="1">
          <mxGeometry x="689.5" y="643" width="40" height="20" as="geometry" />
        </mxCell>
        <mxCell id="93TaMooDdM3QIlw6AQbC-116" value="&lt;font style=&quot;font-size: 27px&quot;&gt;Analyze&lt;/font&gt;" style="text;html=1;strokeColor=none;fillColor=none;align=center;verticalAlign=middle;whiteSpace=wrap;rounded=0;" vertex="1" parent="1">
          <mxGeometry x="901.5" y="643" width="40" height="20" as="geometry" />
        </mxCell>
        <mxCell id="93TaMooDdM3QIlw6AQbC-125" value="" style="endArrow=none;dashed=1;html=1;dashPattern=1 3;strokeWidth=2;" edge="1" parent="1">
          <mxGeometry width="50" height="50" relative="1" as="geometry">
            <mxPoint x="-60" y="1130" as="sourcePoint" />
            <mxPoint x="-60" y="610" as="targetPoint" />
          </mxGeometry>
        </mxCell>
        <mxCell id="93TaMooDdM3QIlw6AQbC-126" value="" style="endArrow=none;dashed=1;html=1;dashPattern=1 3;strokeWidth=2;" edge="1" parent="1">
          <mxGeometry width="50" height="50" relative="1" as="geometry">
            <mxPoint x="110" y="1130" as="sourcePoint" />
            <mxPoint x="110" y="610" as="targetPoint" />
          </mxGeometry>
        </mxCell>
        <mxCell id="93TaMooDdM3QIlw6AQbC-127" value="" style="endArrow=none;dashed=1;html=1;dashPattern=1 3;strokeWidth=2;" edge="1" parent="1">
          <mxGeometry width="50" height="50" relative="1" as="geometry">
            <mxPoint x="260" y="1130" as="sourcePoint" />
            <mxPoint x="260" y="610" as="targetPoint" />
          </mxGeometry>
        </mxCell>
        <mxCell id="93TaMooDdM3QIlw6AQbC-128" value="" style="endArrow=none;dashed=1;html=1;dashPattern=1 3;strokeWidth=2;" edge="1" parent="1">
          <mxGeometry width="50" height="50" relative="1" as="geometry">
            <mxPoint x="609.5" y="1133" as="sourcePoint" />
            <mxPoint x="609.5" y="613" as="targetPoint" />
          </mxGeometry>
        </mxCell>
        <mxCell id="93TaMooDdM3QIlw6AQbC-129" value="" style="endArrow=none;dashed=1;html=1;dashPattern=1 3;strokeWidth=2;" edge="1" parent="1">
          <mxGeometry width="50" height="50" relative="1" as="geometry">
            <mxPoint x="829.5" y="1133" as="sourcePoint" />
            <mxPoint x="829.5" y="613" as="targetPoint" />
          </mxGeometry>
        </mxCell>
        <mxCell id="93TaMooDdM3QIlw6AQbC-132" value="" style="endArrow=none;dashed=1;html=1;dashPattern=1 3;strokeWidth=2;" edge="1" parent="1">
          <mxGeometry width="50" height="50" relative="1" as="geometry">
            <mxPoint x="1029.5" y="1133" as="sourcePoint" />
            <mxPoint x="1029.5" y="613" as="targetPoint" />
          </mxGeometry>
        </mxCell>
        <mxCell id="93TaMooDdM3QIlw6AQbC-134" value="&lt;font style=&quot;font-size: 19px&quot;&gt;POI Data&amp;nbsp;&lt;br&gt;Validator&lt;/font&gt;" style="text;html=1;strokeColor=none;fillColor=none;align=center;verticalAlign=middle;whiteSpace=wrap;rounded=0;fontSize=21;" vertex="1" parent="1">
          <mxGeometry x="127.5" y="982" width="105" height="20" as="geometry" />
        </mxCell>
        <mxCell id="93TaMooDdM3QIlw6AQbC-135" value="Car" style="text;html=1;strokeColor=none;fillColor=none;align=center;verticalAlign=middle;whiteSpace=wrap;rounded=0;fontSize=21;" vertex="1" parent="1">
          <mxGeometry x="-140" y="972" width="60" height="20" as="geometry" />
        </mxCell>
        <mxCell id="93TaMooDdM3QIlw6AQbC-136" value="Kafka API" style="text;html=1;strokeColor=none;fillColor=none;align=center;verticalAlign=middle;whiteSpace=wrap;rounded=0;fontSize=21;" vertex="1" parent="1">
          <mxGeometry x="-20" y="962" width="100" height="20" as="geometry" />
        </mxCell>
        <mxCell id="93TaMooDdM3QIlw6AQbC-138" value="Kafka API for realtime&lt;br style=&quot;font-size: 11px;&quot;&gt;monitoring" style="text;html=1;strokeColor=none;fillColor=none;align=center;verticalAlign=middle;whiteSpace=wrap;rounded=0;fontSize=11;" vertex="1" parent="1">
          <mxGeometry x="719.5" y="1123" width="100" height="20" as="geometry" />
        </mxCell>
        <mxCell id="93TaMooDdM3QIlw6AQbC-139" value="&lt;font style=&quot;font-size: 27px&quot;&gt;Collect-2&lt;/font&gt;" style="text;html=1;strokeColor=none;fillColor=none;align=center;verticalAlign=middle;whiteSpace=wrap;rounded=0;" vertex="1" parent="1">
          <mxGeometry x="270" y="644" width="120" height="20" as="geometry" />
        </mxCell>
        <mxCell id="93TaMooDdM3QIlw6AQbC-140" value="" style="endArrow=none;dashed=1;html=1;dashPattern=1 3;strokeWidth=2;" edge="1" parent="1">
          <mxGeometry width="50" height="50" relative="1" as="geometry">
            <mxPoint x="410" y="1140" as="sourcePoint" />
            <mxPoint x="410" y="620" as="targetPoint" />
          </mxGeometry>
        </mxCell>
        <mxCell id="93TaMooDdM3QIlw6AQbC-145" value="" style="endArrow=classic;html=1;" edge="1" parent="1">
          <mxGeometry width="50" height="50" relative="1" as="geometry">
            <mxPoint x="220" y="910" as="sourcePoint" />
            <mxPoint x="290" y="910" as="targetPoint" />
            <Array as="points" />
          </mxGeometry>
        </mxCell>
        <mxCell id="93TaMooDdM3QIlw6AQbC-147" value="" style="endArrow=classic;html=1;entryX=0;entryY=0.75;entryDx=0;entryDy=0;" edge="1" parent="1" source="93TaMooDdM3QIlw6AQbC-189">
          <mxGeometry width="50" height="50" relative="1" as="geometry">
            <mxPoint x="360" y="920" as="sourcePoint" />
            <mxPoint x="449.5" y="933.75" as="targetPoint" />
            <Array as="points" />
          </mxGeometry>
        </mxCell>
        <mxCell id="93TaMooDdM3QIlw6AQbC-150" value="Kafka API collect stream to process" style="text;html=1;strokeColor=none;fillColor=none;align=center;verticalAlign=middle;whiteSpace=wrap;rounded=0;fontSize=21;" vertex="1" parent="1">
          <mxGeometry x="280" y="996" width="100" height="17" as="geometry" />
        </mxCell>
        <mxCell id="93TaMooDdM3QIlw6AQbC-159" value="" style="endArrow=classic;html=1;" edge="1" parent="1">
          <mxGeometry width="50" height="50" relative="1" as="geometry">
            <mxPoint x="60" y="907" as="sourcePoint" />
            <mxPoint x="60" y="907" as="targetPoint" />
            <Array as="points" />
          </mxGeometry>
        </mxCell>
        <mxCell id="93TaMooDdM3QIlw6AQbC-165" value="" style="ellipse;whiteSpace=wrap;html=1;aspect=fixed;" vertex="1" parent="1">
          <mxGeometry x="-10" y="1392" width="10" height="10" as="geometry" />
        </mxCell>
        <mxCell id="93TaMooDdM3QIlw6AQbC-166" value="" style="ellipse;whiteSpace=wrap;html=1;aspect=fixed;" vertex="1" parent="1">
          <mxGeometry x="-10" y="1402" width="10" height="10" as="geometry" />
        </mxCell>
        <mxCell id="93TaMooDdM3QIlw6AQbC-167" value="" style="ellipse;whiteSpace=wrap;html=1;aspect=fixed;" vertex="1" parent="1">
          <mxGeometry x="-8" y="1412" width="10" height="10" as="geometry" />
        </mxCell>
        <mxCell id="93TaMooDdM3QIlw6AQbC-169" value="" style="pointerEvents=1;shadow=0;dashed=0;html=1;strokeColor=none;fillColor=#434445;aspect=fixed;labelPosition=center;verticalLabelPosition=bottom;verticalAlign=top;align=center;outlineConnect=0;shape=mxgraph.vvd.nsx_dashboard;fontSize=11;" vertex="1" parent="1">
          <mxGeometry x="894" y="830.5" width="50" height="46.5" as="geometry" />
        </mxCell>
        <mxCell id="93TaMooDdM3QIlw6AQbC-172" value="" style="points=[[0.015,0.015,0],[0.985,0.015,0],[0.985,0.985,0],[0.015,0.985,0],[0.25,0,0],[0.5,0,0],[0.75,0,0],[1,0.25,0],[1,0.5,0],[1,0.75,0],[0.75,1,0],[0.5,1,0],[0.25,1,0],[0,0.75,0],[0,0.5,0],[0,0.25,0]];verticalLabelPosition=bottom;html=1;verticalAlign=top;aspect=fixed;align=center;pointerEvents=1;shape=mxgraph.cisco19.rect;prIcon=monitor;fillColor=#FAFAFA;strokeColor=#005073;fontSize=11;" vertex="1" parent="1">
          <mxGeometry x="902" y="1035" width="64" height="50" as="geometry" />
        </mxCell>
        <mxCell id="93TaMooDdM3QIlw6AQbC-173" value="" style="html=1;aspect=fixed;strokeColor=none;shadow=0;align=center;verticalAlign=top;fillColor=#3B8DF1;shape=mxgraph.gcp2.monitor_2;fontSize=11;" vertex="1" parent="1">
          <mxGeometry x="894" y="1123" width="100" height="85" as="geometry" />
        </mxCell>
        <mxCell id="93TaMooDdM3QIlw6AQbC-174" value="" style="endArrow=classic;html=1;fontSize=11;exitX=0.5;exitY=1;exitDx=0;exitDy=0;exitPerimeter=0;entryX=0.4;entryY=0.082;entryDx=0;entryDy=0;entryPerimeter=0;" edge="1" parent="1" source="93TaMooDdM3QIlw6AQbC-172" target="93TaMooDdM3QIlw6AQbC-173">
          <mxGeometry width="50" height="50" relative="1" as="geometry">
            <mxPoint x="400" y="900" as="sourcePoint" />
            <mxPoint x="450" y="850" as="targetPoint" />
          </mxGeometry>
        </mxCell>
        <mxCell id="93TaMooDdM3QIlw6AQbC-175" value="prometheus monitoring" style="text;whiteSpace=wrap;html=1;fontSize=11;" vertex="1" parent="1">
          <mxGeometry x="900" y="1000" width="70" height="30" as="geometry" />
        </mxCell>
        <mxCell id="93TaMooDdM3QIlw6AQbC-176" value="graphana dashboard" style="text;whiteSpace=wrap;html=1;fontSize=11;" vertex="1" parent="1">
          <mxGeometry x="900" y="1210" width="130" height="30" as="geometry" />
        </mxCell>
        <mxCell id="93TaMooDdM3QIlw6AQbC-177" value="Zeppelin" style="text;html=1;strokeColor=none;fillColor=none;align=center;verticalAlign=middle;whiteSpace=wrap;rounded=0;fontSize=11;" vertex="1" parent="1">
          <mxGeometry x="901.5" y="882" width="40" height="20" as="geometry" />
        </mxCell>
        <mxCell id="93TaMooDdM3QIlw6AQbC-180" value="" style="endArrow=classic;html=1;fontSize=11;entryX=0.15;entryY=0.95;entryDx=0;entryDy=0;entryPerimeter=0;" edge="1" parent="1">
          <mxGeometry width="50" height="50" relative="1" as="geometry">
            <mxPoint x="620" y="770" as="sourcePoint" />
            <mxPoint x="733.5" y="1049" as="targetPoint" />
          </mxGeometry>
        </mxCell>
        <mxCell id="93TaMooDdM3QIlw6AQbC-186" value="" style="shape=image;verticalLabelPosition=bottom;verticalAlign=top;imageAspect=0;aspect=fixed;image=data:image/png,iVBORw0KGgoAAAANSUhEUgAAANcAAADqCAMAAAAGRyD0AAAAilBMVEX///8AAADu7u7t7e34+Pjs7Oz6+vrz8/P19fX+/v78/Pzx8fHv7+/Hx8fZ2dnQ0NCYmJihoaE9PT2+vr4qKirf39+xsbFPT0/ExMRwcHBaWlqMjIxTU1Orq6tpaWnOzs6Pj4+Dg4NGRkY1NTUtLS15eXliYmIODg4aGhojIyN1dXVAQEClpaUXFxcb68uJAAAZJElEQVR4nNUdZ3vjLIx4gY3jrDppm92Rttfe//97L5gsxBJp0uvLfTgeSmTJBkloQYhoVZokKZM9moheKTqlGEqoHGLyj5XsySEuO5kcKro/Nsvh6unu7a3Xe/sYP86Xa5LROkm/B7UWQ7XsFHIokz0uQURAJRdjIIYG2/ee0RbDlvL/LV2c1V/PJlGq7Sa/jq70bG4K5uaiozBIWL7566JKtvGkjIfqpUv08ghcSSVawUVjssdkT3Yqfag4DNFuPl1++KiS7WlNaBzU7Dgkf0jLw1B2GOIlHleSiqZeV56mefe6EjGkXpcc2r8u0ZOdUgyx9jFElWx/eBTUfP8RRK/svqPoqY8g/1gdhnC4piSJXd41+8JQJdpH/8qbBr8Vk2i66uQPkizRNgrEv6DrtA5l7/htEzVXNH3FkPYJT1avt8pqDNRKrrDTOiT6OkzNdRjCNSVMtkw2reMYqvKXGLJ6vRnLwlDPerihMK4k6nXxNsgHYRtHfYQcfIT80k9LYpY3b+9iyRJf7FfIZd/cJBnHkyX2GGH/ii7z25aWb8t2l5DV6w0rH1SLUKrP12EeXIc2qISKxgrRMtnLZI/Zh6qRA++359ni8XHx5Nx7a+KGSmWnOGKBGwriSqX8MtSzNElN9YwPrDjfbQdNnjH5kniztH/R58wJ1a305ThV0g41Qi4z2+YaTwU2db1f3hlljVUfnl9n09xC32C2VTgsIAac5VvLxOYf6hu5VXzst22SvxnIPjXdD+XOz08aqjhumhttZ4dq0XvzM6F0BvWoCiNw7fSNshQnpUQsJSa6giOLXimbPlSRoYHrH/EOeV3XXM4q5KxM9mjNWnPJrrkVquiJTk1lJ5NDhexZoYoeQeIqaXJtW/2sVlbGN3h1LwNODcJWHSzbCfBy+eU9V+KWN5kYiBIPBnVlGD4aYkL993YAAk+Sz+rnTgxaSNf8h7+XXJ+VWLw1kz1WH9ZsN0T2Q7yFXGNACznrsBPKQs7P5JDaCQSyz+fKgJoch+T+KjM55IeKwVVBRfLDqfn2XZxrL0HrT/gm+Hf4oc8OYOWHOPm1AkgWQUlD4Y4cst8nlzPA3+ZhDOp6of/mkf40XWGdC3KBfL9tc48mZ3wwjtUPfVDR+qE4Mx8UYtFTCrFs50PlvY7hWOnn4o9KzT6AYEcQosM4+MgNgHoGItNBeKAGcVXzcXYANtcx3NDAtlUgXvVfTUjADhBiBle3A7AHgCHFSBoC7IyjX2cHgAflvEbRBTbY5rfZAZJ0pmN4shxpJ3Zoauzrv/oTsgOgoGLtAAibXAE4wF9WYCx9BThg76qftB867L37ZaBeF9M9XR9OD4Gcf/wIrNHpemQ6VPdH8EEN4RqjbwC63nESFNK1Y79N3yiATR5JF1iHrz9KF0rvBacUqm1b4Kk6LiK21n81pxi9NwQVq/ee/JVlVZXAB7gfKoDaey+nFfKPfO9GLDsQmewdPYvwEPBFdKjKs9iBkM7JUvkrQ1BDuB78lWAZWM9qbKtjOPTK5YPSR8CvJj/qX8Ysb7rUMZwxlFwGUi8PbJry6N+hvP4RfcMw9QqFI0wXPAQ4MBAdnpFyMPnarh4Xi91qO1pO8oJdg66ADK+h22vIEB4CoPauINS9ZpAwtt4YoSB/t2s7VKy+IXthHgPNNiR4YudAeolNab6CPK0pHboiQbaDAkLF4MpzvB0AWmFGQUkDzwC9hhtQKWeN1wv/uIZL9sr2efjye3WALgqOor0ZN6Fm7SuEC9usr+ZfxQ5gwQDwtt7j3g5M7Gw2yaHHdslMqEvT5m+2XcPiRUIi/XqHMB7RUzE7sulDGTS09Tal/KUSi6KzD+MRvU7YZtCA1UsYgEpSY46jjRjbhxyhcBVzaPeaMWpMacQ3LF3bVoywDZy9pQAq7eNDC1YsWuXqGkYmGB9M8g778q6hPUS0ptahliY8T/vMs1vI5W6u6ft5La100RSyQvG5GIC6NKZ4292AXkQXQtYZLLHXe25kmBAI46n6Zrzle1vrUCPJEhAaupfLGFwla8Eew8nW8rhVS4rsdAwvKtLaXOfLSoMK7ZGY9iFUqwiTgd8OcGY2SRJozFZttxYsldHuh1Uzgt4GNUeH6ogsCLRxwA6gmXhi4g9r6nji7HWzGY6G24Xj7+9cg1q1lmhnRHu4WfyhZYth2n2pQSWusJ2358eHh92TMwZryq5tBziIj77rkb62ZDpUO4f/+3Av+V3FMj6Y7OyKSFvj7QCnAJ2qKCoQs6MNCdleREkd1UZEg8pymzx+WdZqWlYVQlspm7lNyZ+RColrQYBMSP1uGhZN2AhAhTYF2d6Gmb64Us5ayzxpSkDiCukKmbmySBa9BFCNY5loi6YwNw0nfZO9fFS3y3cYYJTw4wsuAVTL59pSbmcGuRlK/BVtB8CH8Vge52ifDQdQEyOwQPqdXYdgBk9HvY8CGXLU8XkVjCZ7Z8tA8hg5dMY7u09bU26+c2sbWqAasfebw4JJOmQlK08OH4Hnhkq2zJC4xsivAwZlg4jznTW2TQO/wAMDG0E7rWY5hPqZoXC9jC6BwTSgMzxPCmqhC+I5pol/gxvxS4Pb0aUwmHq22WKSURtUI4hxQENGXHioniPp4pzXtOzCeERvH8Yj/pVdGI8Y2ofxiJ4KORKdLoynYOutNUlgPGxlKpEFKmcAyzmDUNnhQaUaIgmA/oTCVQVGXhzWWN5Dg9LT14Ax7goOKnRu+JdaoWrKEYNPGNQofuhf3iRgvqMl4FhrFSzvgAq218YB9XxxcWgOn9Lb5lcqDOChrO+1pAMu0CLoSqAQ27IL4w/zmIzBDBwk+97gIJ1tLIgL6llwUEoBr1kxDK6dPp8do3GOnUIfAjE7p6EScMX7Up+lQSW6+e2VuKBqQ2Ah7goMrrF5iIbnHqySCfcEBwHlcJTh4gH0J8zK2+Qhgk0DDv97uuybBvC2Jc4oCJb6OLutXN5jADxIXrqoblhE0gW828/s+nYAi1sNGCu865DqTqEp8zjrTuuw0r9yR1fYDnAywBVZVgCbnDZUHIZOMTuCbwC67it9lgai3GpzR6ULqjYE6coRuHYEfiNts4aaUd/rMdX54ZC4oGrBQZX+6sZ5gsCVBJe3Xy5b6PJsGj0ZpFNhg3I5yXSVZpbWP6BvQHerny5dxL7i6AJ8fhehb5gaaonSe0nCgH8YrEMAVdejdsQF9ZwZcBCOtGIYXIkK45G6vwrjkbp/F7MjdX8VxiN1f21InSi6MB4jiJceQZhQqW6Yf86pA6o8uuyHjEymOcHgivQvS6XPnh6y1Z96Tz2e4DqHk11Qz5U+cGKYYnD9nlzm4rlgf21az6apc137f2AIuQwNji0G12/QxWjRfllcKDOZculgBtBB23AvXd33AgLyjqPpQuYQgMMHWzqztBf3jNYWqAkMKxAfLJTvAD/XCoVrx3Ui7AAHCybNzbzE8/YxtUJtoUFkEAoOotCCOOE4u2hoedvkV8WX3uo2irKSa1AFTPNd3FV++WWYvd+72P0byeXWsC/b2mzNzjQDTiY2Y+rKu8FN//orweEK6cLYAdC+ok26t8+L//sOL+2ceQSN6bxpCA5XFd+rHGMyEugQHKQP0eIQs8PKLKIOzKLtAo2yojFDOk6EMfUgleF/FhxkGnt7C4LENdYOEFkH5qMRb5XmZvzNWVtl1npENTeCkYQk5zeqR9Q6i3w5Wj9LRgFb/kunLINNQxpLMadHdqN6RPF1YHojREWc1SCjiUYXtXysTo5fVI8oVF4muaAODK4tpkqUylA/Rgb2eMs5w+IaWY/oojow2PY0nPYH6/vp0BXf8UIyNK6KJ+LsANRTvuwtxut8YWsicFV04WSdXXX6+DOR/vwsayfLx1tSN6URuEbQZaT8y7aY0Gy/bcX5jtCpNfDrGm3DLsoLALGlZzF9h/B1y+aa3WfcSLkP87+nfnT8ocyygtYFD66EHGW1Ie7PhxjNLFX0hqw0xX2Zbf0Y3i0FTFOVCJBVHhQeBK4R9YiS3BCu7/fMUjlIvi4v0puE1WL9DIIngvO2VfwBfVZEy2VmMI2PhjmXtztw8qFVOyQjOepQoNqQ3ijfgRpRaG8N9WxbRxTVeH0G1XIcs7e3CbsoDxGRy8KMjT4ofMdVaj3LjLgOdY1SNhctNQ/swbybjscEeacRJzNkAVXS1IQe9vacM6hGPo+ldRFxN6pvY0TXPWVJgK4M8oW1AVViQAOZN9uU3rAekZHAMOBB1R+uxMrxZq0BlKq9zVtW37IeEQWHyV0RzvCswObpO95swtLpznL8eXucVJ0Uuixv1DSP1+fm8W6IwmXYp4cwnnPzeH00j8tIILh3NgRAVQ8qu5rCxeBrNz4S9/Yy207k1zGhBnHdQ8X5YYE8eu9el4MfHlyANXgZY089oirnjJW0bQb3k/v7fpspLG5ej8h49aHl3Q0BC1SOSd7tPCXEA/WqcnmrYzhB0VUAZtPn/7guse7elXOBlSxV23YvhF3FQhhQOr5oTJ2KYAkSF67ndgBfGI8Ygj4NXMhRBjbYsPA/6LJAJscQsbwucng3h9cFDAAfDrMJNDUCbrMhgSiDywJI7FAJZnkDDvDcxckETY1lo6sc219Xj+hSut7+NV3mty096/A9S1JEfYDSXIeX1CO6sD7A9/hG5tnhl/MNH1Qs30DxeRBU0x5fl8mRUyefX36DzzvrETn5PEoug8PENLi8bXJ58KNyGUUXOLH/QWHAgHk48etRyVGP6mb9SD0iaIfp6Aq42KHeu/DW4eSUESb03r5QewcdrSkukMml9x7SDaDuX/vOKVNmnFNq45wCDI5DYn2QzGugBWmmD59HZ837eDfqiy9kgRrE9XBOAcvbYQcA58ox5lwJ7MMDA+qhVEfW31oMOB8PffKNcyVq2xp2gHsalKDQOOraismX0/D9Psxvawcw7DZ3LGS3MQpP39vfbMAiNb+p3ca0s21DdratgeJjDqGWmJCJC+1sSLuogUDfZRdVLkArwvNUh4qMb5GlHG5Uj4ga9Wp6A+Z5XQ479sfkHCo6vmXKkhvZ57l5XcCbDBOK9js8Nge/QxasRXRqc15eQBfOT2Sa+MRrtKd7ez/ENu/8RHmUY3PVIRbjJ8L6ygqLi3HblRkEfr2gafrvMCmqSaQnelVE+vU6HmP6Ni3XilkCiMZTRhOwbcNXufWe7xH+BtB2tdMPa7sCTdGF4p1Wv/nnND/3m+fL2DgjdHu9wG+Om2v3w/3dTQeJNDk3k1GECzK+jeLjHHBna3jw+Om2jsD1F8URva2+Jv3+ZDpy1jerIuKILHYAR40fGfcVH86GbC/DLkqIZF3cV2MPWPzDblGP6IZxerMJY1zbNNXIJgjW+Di9OLrMSPFQW2dpyO8vtCt5Vy6Iq2wty/EJH1eJsgNcHAd7J+Ngmb98445ai+Ql1PI+JrY4WHddYjMWWNYahLHA3RDJ3CHIRlu03Q+zrO+WANuYuOWZLW7ZhiuUXyni2gh00NZGXtfSQaW1Sw2ZZ3VMnPnAFmd+hXpEEXkBi/O8gJraCiwF8wIMDfrPhXkBKLoweRx3EyOPozF5zkt8HkcSp29E5d2kobybO2veTWmkFITyblIKz7NTZN4N8vwlhmD+19J5gtr1mThjmVBrWE51xSBUKh90vmngERWbJxUpv0Bem0VjXEwzZ75eAoTEwJ/X1i0uEFVwRzG4Xj8PUa0MB10gv3KHKRoKP1iDputb5d+3+lO9eaMc8O0pxRhxwQ5D5o3+ZJ4vMP68tYg83xIe+7a4PF9CvlGPyJuXbYGqJ50siAtq6snL3hl52TeoRxSZR6+zQ2QefaY/4fGiuj3RdEXVPdDZ4ReOrkKXJ095RN0D1Nna5t711akwoeoKxz1xQdWcxpW+JJ6PdHntAKG6IrD8b6GfuWPqihSFrn0NKhdUbQhUI3lx1xWx1yXWtq3dDmDx3EfUgUkSna7GVQdGr0cE6aIIXL9fjyiibk9d62eVxlfy7LRpKp3lIuv2fJeumDpLXDea9nF0FfqpCFlnKdIOYJjvIupiJVyf7KyLRbR1yHQLzgyDa/qzdcx05WR1WR2zCoMrAcsAYwe4vO6crhKNUc4fWHfuwaw7dy07wMV1AsGxHlcnEHCmzU/oGxRWafHXdQRLaoOgy6jreB9R1/FSvZdOoNHtaTSg+zqcFqiFPvmlsELV63ACk/Zbg6vDeWndVFLQycqaIO+rmwqk+NJeN/UQXyTrpgKtVxwCMLjyi+VXOfLkns9cdW7BWeoj56Fgky0APULherFcDjlSnycZM6EamyXohDTKn9+wLnFN1giv95OtjjQUd+J87fteLIMrfVZE0yV7YK4cMuiiOdJCPyxNqIbZcXCgKzG/Fzc9pFOGwjW2HpHkXJii36p9NhRATQzn+1tD3fzQeIF3JbZOu395EyNJCB/9I5tZV99A9e9a8EDr4oLcsxddVx9NV23mMfvbF4BquxNmVNtYDGlMb/bl9yCk3npENd3GkaWKUp5DpZbNOetDujizOgCmaFzj7hmJidU6EabfM2INb9mtK+2ekXZo28RP5OiDDN4zErIDaOcvb10hVxsxHapd9D1v+6d7YVZ2N1TDsbjG2QHiq0t0rUvvO0EtXV7Bt+fZbvf4eZ17fPB02a4+6drjdjMcjYZzW7Zu13INamVdieG2ujwP0VfjJ6mtT9s2Xahf98MqX1q/xUyHatwBiWrwnqxAPaLgXWEHs55x00JHFSdn141195rZpg1LDdYlC/oOc6/ZyQSp+LzXbLK3oVrukpq1yHvoxI7XoUZKQRUIcvU8xE4mmE7vjX1509qsTLeiAGokYeP2snsDw3PNpTN1bdvavL6yt+Y61DJqKS4oztQYXY+orAzu2yWBOTIGM+NzrDiASvv4mmjb0lrt2IVrRxM9XIKq3U0Krys171Ed+u9RNbSllgGohCMLKb5PM3q6RzWMq7pHNbGY78zFlcHz4O6QieEoPpHD7bix3HtrrcwJ22t+0b23OLlsaOE89p7il7Q231ZurQZ43hYDhdiN8h3gfvkKHmmMg1bfvFea1/br5k5UXX6vdIrKZYFFT0nwaA3TEHsbxz3ghbOc5cO6gFAj6xEFZF0NMse7O9aCrhdwpnmCUPcSNGWsvzU0y7vXezvUq9YHgJsl55iQWfMbO07hPCPZevo1f/3zsJ2PptPJgCkr3Y3rA0A5u2AYkxxcvE3A6t95mLofUstW/CZdVuYNecCQBtisWh7gFDp15I2imXdU3qiUovswHtFTYTydDDwbyoAZr8+6MB7xRxVfdACRaUPwSuwh0aFyJcJVyJGU5RwDNYSrgoqrS1wBqUzV6zpnU5bKQQwEAG2ps9qxrS6xA+o17QAMnDxwpkYGhPmO/bb6ACAY9Q5JF0yk/1G6NDtACoTS/rAI6HoOi49uHQK6ZgweQWOFkiXkyMA1oi5xkepK7EdmiS8yf1iAdfhY+R8UvrQcgesxnwjxuhKY43mqA+MuOU2MqP4HxEcIQ72mvgHdNXWNkssgDWPz6+oRwWC8iVcuH+kCht3Rr6tHBH3yc5oiKgcZob+hqMYcAzUiD5GqmB0qeiCMZz9Ugp3yIr0VTP5Rmf0PINgRhOgwDvw8LYB6BiLTQXigBnFV8xku3wGq5i05V8/sIUcUZjlxzG0zIajXrUtcgFf/GlreogOrusskgF+mbxACTUd1EAPjzCbOov9G3/CdreGaegjZAZIaWrCa2leP6MJApkA9oqSuVXAQE51EDpXdEOkie+qaG1W/VV4D4fKPclYh58swHkIlCNPSMy4JhJrIeCEih6gKDhJDfqgYXJOIekSp4Uz5q9ipU9IYvrINMaF+U355z5W45U3WEM8nH108hdNVrOG/0zec78AIOti5MaCtEWf0QF1v9kbfS65FuWYTuUAJS87W7NlQZQlHeWTkuBOI3AlJRrqdwAZm+NSAW6Ge7S+SyaGCnO2vc6iJ2l8oXNF1iQWPMS4YE2rHWpUl0TmX9bqAP35TY5gf3qYusVgGhvog24aB5V1zZo0Ka6+yaa4vl8VcaJTq2t2X+K08tnQYCB3NXolhiN80V6QLp3PV9vCEj9d100p3lkCgmdqv4PmsnFCD9wZeqh92MThKIZZhPEohtg4Vzki2u8+n2WL25CxtMyjdUM8igfBDQVzVxkeerdkF0VGyfVU4Y0yIGdwmHkA8DpZBxLUHFVL//U1zq3pEKTertIXb7GrM4Op2gOOK4fF1YMZhqJ66xChT4/frEWWV4Q8PtCeaYY1/17UfOuy9rgrCkXVgdjLQKAzVm4forUvsgBqfh1inEXVg5grEtTbNTfSNAwa1WQrR0d4nV2YG17cDaBoqaxx3ouptlUdB9RfJi7YDdPWIOoefigTSfIDHoZNnsfsjDRcD/LyXSUUxULPjEN27MBVi++Ag5a9E4mqrR+Q8q53Us4TlQ2+Kynha7jNMIqB6F5ddlfyuHcBY3jXlU2cVut3kJpvmZvqGhoEYajcW/eNx1FL+7+nq7ABqbneQ7uaKf0k3Vw6puSXZs055Yj9iwNrp8GH28lcsyreP8eN8OhCHMFm05nKopSKi7uwAiq7ODpBEQC3L/wDLSL6TUgXKQAAAAABJRU5ErkJggg==" vertex="1" parent="1">
          <mxGeometry x="-10" y="870.5" width="67.07" height="73" as="geometry" />
        </mxCell>
        <mxCell id="93TaMooDdM3QIlw6AQbC-187" value="" style="shape=image;verticalLabelPosition=bottom;verticalAlign=top;imageAspect=0;aspect=fixed;image=data:image/png,iVBORw0KGgoAAAANSUhEUgAAAK4AAACCCAMAAADovAORAAAAwFBMVEX///8qJyUAAAD3lUL96dv7w5r3kDX6v5b959b5t4j83sn+7+T3iSH3mk781bnfXBIbFxQlIiDv7+/29vYfHBkWEQ26ubkIAACPjo3p6enS0dHf39/eVQAOBwBNS0k2MzGop6ebmpl7eXhlY2LHxsaFhIP++PRCQD5WVFJta2r2hQ7eSwCxsK/4n1b7zq75rXT4o2LzvqT30r/rjFv4sn3um3LwqITojmjkaSHkdkbmdTnuq47tm3vqg0vnhFvkYQKmfSUUAAANVUlEQVR4nO1ca1uruhIGerG2qAkQruVaWopStfWy3a6zt///X52ZBGjVpW3RWtZzznywkEJ4M5l5ZzKpSNIfL7Phde/k2NK7Ho52gDronfUv1X7n2NIHFJ374exTtOf3/cvO/fVw0D22DAbnJwtVXVx/DHhwo3ZOh/vazgFl1Fuo/Y8ArfqXp4MfhbNdZr2+evpbBd+ot20DizK775+9xzW7V28+t+ujybXa6b5tu1F7x4Cykww7b/XbU0+PA2UnGaqdVzN/3r9vqSUIuX7tb2q/1Wgl6VQ9X5/0Nk9aKbN+pz4eddpKCmu5Vq+rw5PLNhLuaxktbiuV9s+OimQ36allNB6u9dxiGfXvxcHJ+6DRRjkTzja7uT2oow0fHr9FHT2V5+ujxf139PaRdMfj8cUOC4OtsrrkxjvonHxDZx/J7K/xxcX432+Yv0Gfu9iwf0hP616gjJdf72kk1Do8aEhbXXG8T19X7+iMZ2GHhfuItnBxcfX45Z5+BO6/44sxQn6qA2d3+fDvsoGyfwTu0/jiZfY3YH6WsCywengGphhfNbDln4A7erkY/8MN+Op89Xj3hKyGrtfANn4C7uDqYvxLku7QgkuoKC+r/bv6CbjLK05iwxJmibiR4/0E3P8APHQyhD1+ef5ruXoG0HdNujo83O4vAPeMEXg2Hv/zuBrN0CzGfzeKyYeFO1s9Po3XAbjL05zZA2j5qVkGcUC4s+HjPy/cTsdXDxvtS2xq4GYoB4M7W74InxqPwVo3dHkNhDZuiPZwcB9Kvb7cLV9lugOIGc2j8aHgjq5EJFi9ibSjl3Gj+FDdflC4Fw9vZ/0XxrbmmdnBjOFOBNqr58fuJrrZC8BtnvjuBNcr4th09uu4e3clAI+f7jZJCzOz58broB3gpjlBkSN9r55ny3+Ft/29dIuNB2JE+9UM7C5wTUZkFGpN9+x7trq7uho/jAoSb7RCKIZ0sglWaQe4MaMAlSJgJdq7++HjypszZvITTeIom6Y3KNvgeoTKlGWhj3Dz/cxBdBDC5Lj8KBn9tRzOeFR7alh12AY3ITKVU00riEHtBmilgsk08+DAyeQRhIjnhyVa78PWG5vAdQIqGzYe2Ya5btYd7R103XF+N5wY4AbAKlrOiIOLtnIpcZAUxwsBboJHmle3RZMgy+a2t3GdnibzLAtyU6tb3Ni2py5OjzGBcUyIrHj/qZcSV82yhm1wM3AyK91o0WJqGZRSw6drpnDnPsNG4s/LQTi57zOmuNLckAmMd6rIhuysnseCjS+umm2MboGrTZAXwjVeJzA4S6D4STn7NjWqNpJxt3LmnP0UTQJSYbZkgwvgN7PBrzu+YGu0ltjuapECTzWEa4N4AcAwLEO2EI4v+NS2gD18JhP4lI0Q7SFhcMR8pktwv1WYikxJ1cdg+fDQpMawC1yJq8kIxLP0wAAOnpielyaodh8jc2wgyNj1vAi+5mPQfDD5+XRqSw7AJdMQdLxpUY1znK1wPYQAcHjKEFsyNcpgHAEVWwDNUWC6c2GyDngmDTTJBW0a/LIUZwcNIv2g/2+GK7k8pJGJJhxvHVAnhmxA4LB92cgqQihgbKErweQbc9FgcZMWZPgTcKU0RLwM3DuyOMBSTGDUueYgd9SqwzMgaCBbJnjDBiNGs8l+DK6UYtogKw7qU1knV66BcFMmeFWIDkxCTGlKZD/iDXBEQ1mYzQ/BlQpOSoUEalbWwcHlAQAUSTZmOocxpJIAzeED7U5jMHNmvuv2UHCRNsHjdaBcZZ2lI9ApzjZbwwXt0tDTIHQL7sMg7sd4TkPtfb/fDTcVyvQ4eyIpKbWZ6mCmCjfTDXsGeDRzIHSLtIYHcbgI+YElTTKkfeB6NktquIrrIofWD0VSk3Wp8EFxVQTQEehc92S0amxwkYjh2xymh0QHhavFPqM8X3DAAimRIoYMIdJIDeMWK8okSKhSMmMXTnLJhMsna9qFL7k5KN67Z3wjXAcDBM3sNEJTFIEfKTQvXDeeo9rQCHQebwPbdc2EFSlPaGBcIo1D6gPjKHEbTdL7neGKfIESC3mMQZhIRCJj+JBsYVMg9EyQV5nvW8RIIyKzeMP9pjXNoTmwfVd7e8HVQ1IlWgxUhJxKSZWPUSUvScKU63zMA5oFz4Lc1or4d8hjwtp5Kqq475/ybXAlWBUaXHWy7ZReb2eEQLLLjHm0cRmFpRElLNDmPgELpYyUDBLCUUlzpkKIn33RfD8nMi0ODEbCKX8293rNiydZGCTFJotqZh6E2QTWF1EcxZoURfgXBc8rjUbY/EX1bg0Ter0qS7/FWb4me9TITLGMOarsARfil/89iUpz2QPulFHlW/KUL8gecCdhFn6ViL4qe8D1QI7saT+zhf198n+4h5SjwtXNYs8lxjHhahnz91whHxPu1IIcbb9btsPV3MisyopAZc3RvesYa8ffrd0ogGy8LJznCttTG59Koij7xp1tBdOEYe5N2QTPIDuffBHiKzGLfcPOFriwEKOWj+sAk6+H2ZFznM/hAkAapOmcGLkm1on15Om6Xh9pb3YqdMdxXjNUfcnra9eH+rq/+pa3nWyFC2tEtC4v40rFpWWe8OWhE+WBSNV1MwlkOZhuFKPsgIBVJusWvchhBQILDD3KQ3le7iDFSVJm+5qZzLMgjzfQudM5UUhmv3Htz+EmsLbEnJEvIrU5FscttF5XJobPcaehQXCngoVlbqlNDSLMXa6yTTfApZzBAjNguNCzco6LERZKVR9irVeB03IqOiHkNd6t2qX1DS4u2gluXcYWUBDPfacKlYmlYFVUrHKd0Idb+MKeKkJbKayUDfRY6gMmXErz7U9NKRfyvA+GFxBZPCnN8LkMLzWyV1vnn8PFMpNRbeYUWDNIcg9LHEAVCSzlpz4MIIlMm1KxMHIzWCHJiW0HpNq6cBiAnCQ4NTIN8yQr2dZUxJYSFq9YLu4Q6b8LmmVZbudYEdio0G6Fy7dESFkbz4nM+ExhBYd3glXniVsNBUsRoSH73Iz1vNxP411EovJLQ/jKA80ZfOb4aQqqDxC2Dt3yYgqvSHD7drFa/4o6t+1a4k4KK20N+uVT5Zd6g+kkc+4sLlYaQDOxUldqXCrKeh5upWDDFPDzQWaUhqK0isOB6TDE9KWWuDJnslWqtFDKZ+4IFyIlEYV+JDWBEtSlcJCweMPtU4glFrGmDodWL+31OeVwI1aWsHMDN1lAwDZyfi3q0oFey7qJK9Tgrocs6fvCFTs/zOW2ZqRr7fB9CI4f/L3kBSDmevEJPMKNAY1C5+OmosyHACO4y+fX4nZHyeXgElj7Qfeu2B3nbx9jwO5lvu8IrCtqiY5VxjYwCsWRvEQhbCpUinsX9TBDYYlW+UC38hoAiDuCOEca7zUo6RZb+LBovdeRKm9qBTskkAVFm0Jt8YlGLQtd8u4zn9V5Skhlq7oL5hThgS7FLkpRGUVCuAnBHGW87laXWgIDWzYNSor9jXL9NrgQjLieMgp6AtcRWyZTwj2azxpwbaHE0HmKD+B7FxVL21z3qEufjyaHAIGfOOykZl2XVbXKjZZa33pezugucN1c1BEj0JkppUTArTyaaxf0oAMY3bZ4VVSm682AuUGJGJx4oFVuDIJRIECYI9/kW5/VAGHicXfIxW2B0gDAO95U5T6BO8dqdGzaSGC6lAJ9hoVX22S57zB3PbeQwcXQmZFi/axI09jULR43HHQwfCDwilAjcBMCxO1BD3/lwDl4Y9Z4qFewQj8tXP9tmesTuKAAIHTDgD+YPWJYtXLJJJX36zmW+WmIJWor47TOeLJADMVDOoo4+4oH4p57aRRo8frE4DQnSI33Bi181mK+x88g3LvvTPczuLqt8MDJKL8lhjNgoCmT/cq0+A+KsLZezZ6p8EI69SvtoS45SmQAbhQh8BvnDTQtTwwKZT1rE/5YmWYYPt+sXj51NVtWFIUlpePbVIFHQwupLgASQ7GSOgs2MzhVlAQsSUGbhQ/+QA3aOZ950BDjuBTkjRg+0mqkSjVrkcy7nTqVve8GF/fJ3M3fA3kASwNZt2huUbivnMErosLhl/HgUF6ta1VaLg500b7Rmb7Zr+Omno5hm7wpeba4imPKa0qrpLVwtQJM+N1OUQvh5qbrmlEAvqq8+9FG++Cmim9ZuBwx/OLdl+2DG/Ofw1BDCX6zs9A6uPqUMkbkbPJetVIL4QI3mqaZflCLax/cT6WG+yf8E3YNd9Bv72s6NqXb6YmPNr+nYy3l/wnPFjfHRrKTnIv/wp7dLL7jf7oPLveq+LXn9YfvIWqVdBbic3T5Jxjv4LJihIV6VCC7yWn9FonzP4B5u536zT2zRfud7UZdO9iq9dY7uNxk21u13eQwWrx6/0n3rNPqV+PcXL7+15ChetZi8z1R377+5Lq/aKt+Z6e/eT/dudppp/2ObtTfJTXDM/W0fQYxO+9/EBVGC3XRa9mrs4a3/c6Hi53hQu2fDrstgTwa9jqXn760Z3YOgM9ub057x5aT+9tFXz072Waeo+Xp7Vmnf3Q5u73v7eb7s1F3cGzpjmYtscn/HfkvY3FWlxasQ/kAAAAASUVORK5CYII=" vertex="1" parent="1">
          <mxGeometry x="149.22" y="884" width="61.57" height="46" as="geometry" />
        </mxCell>
        <mxCell id="93TaMooDdM3QIlw6AQbC-188" value="" style="shape=image;verticalLabelPosition=bottom;verticalAlign=top;imageAspect=0;aspect=fixed;image=data:image/png,iVBORw0KGgoAAAANSUhEUgAAAK4AAACCCAMAAADovAORAAAAwFBMVEX///8qJyUAAAD3lUL96dv7w5r3kDX6v5b959b5t4j83sn+7+T3iSH3mk781bnfXBIbFxQlIiDv7+/29vYfHBkWEQ26ubkIAACPjo3p6enS0dHf39/eVQAOBwBNS0k2MzGop6ebmpl7eXhlY2LHxsaFhIP++PRCQD5WVFJta2r2hQ7eSwCxsK/4n1b7zq75rXT4o2LzvqT30r/rjFv4sn3um3LwqITojmjkaSHkdkbmdTnuq47tm3vqg0vnhFvkYQKmfSUUAAANVUlEQVR4nO1ca1uruhIGerG2qAkQruVaWopStfWy3a6zt///X52ZBGjVpW3RWtZzznywkEJ4M5l5ZzKpSNIfL7Phde/k2NK7Ho52gDronfUv1X7n2NIHFJ374exTtOf3/cvO/fVw0D22DAbnJwtVXVx/DHhwo3ZOh/vazgFl1Fuo/Y8ArfqXp4MfhbNdZr2+evpbBd+ot20DizK775+9xzW7V28+t+ujybXa6b5tu1F7x4Cykww7b/XbU0+PA2UnGaqdVzN/3r9vqSUIuX7tb2q/1Wgl6VQ9X5/0Nk9aKbN+pz4eddpKCmu5Vq+rw5PLNhLuaxktbiuV9s+OimQ36allNB6u9dxiGfXvxcHJ+6DRRjkTzja7uT2oow0fHr9FHT2V5+ujxf139PaRdMfj8cUOC4OtsrrkxjvonHxDZx/J7K/xxcX432+Yv0Gfu9iwf0hP616gjJdf72kk1Do8aEhbXXG8T19X7+iMZ2GHhfuItnBxcfX45Z5+BO6/44sxQn6qA2d3+fDvsoGyfwTu0/jiZfY3YH6WsCywengGphhfNbDln4A7erkY/8MN+Op89Xj3hKyGrtfANn4C7uDqYvxLku7QgkuoKC+r/bv6CbjLK05iwxJmibiR4/0E3P8APHQyhD1+ef5ruXoG0HdNujo83O4vAPeMEXg2Hv/zuBrN0CzGfzeKyYeFO1s9Po3XAbjL05zZA2j5qVkGcUC4s+HjPy/cTsdXDxvtS2xq4GYoB4M7W74InxqPwVo3dHkNhDZuiPZwcB9Kvb7cLV9lugOIGc2j8aHgjq5EJFi9ibSjl3Gj+FDdflC4Fw9vZ/0XxrbmmdnBjOFOBNqr58fuJrrZC8BtnvjuBNcr4th09uu4e3clAI+f7jZJCzOz58broB3gpjlBkSN9r55ny3+Ft/29dIuNB2JE+9UM7C5wTUZkFGpN9+x7trq7uho/jAoSb7RCKIZ0sglWaQe4MaMAlSJgJdq7++HjypszZvITTeIom6Y3KNvgeoTKlGWhj3Dz/cxBdBDC5Lj8KBn9tRzOeFR7alh12AY3ITKVU00riEHtBmilgsk08+DAyeQRhIjnhyVa78PWG5vAdQIqGzYe2Ya5btYd7R103XF+N5wY4AbAKlrOiIOLtnIpcZAUxwsBboJHmle3RZMgy+a2t3GdnibzLAtyU6tb3Ni2py5OjzGBcUyIrHj/qZcSV82yhm1wM3AyK91o0WJqGZRSw6drpnDnPsNG4s/LQTi57zOmuNLckAmMd6rIhuysnseCjS+umm2MboGrTZAXwjVeJzA4S6D4STn7NjWqNpJxt3LmnP0UTQJSYbZkgwvgN7PBrzu+YGu0ltjuapECTzWEa4N4AcAwLEO2EI4v+NS2gD18JhP4lI0Q7SFhcMR8pktwv1WYikxJ1cdg+fDQpMawC1yJq8kIxLP0wAAOnpielyaodh8jc2wgyNj1vAi+5mPQfDD5+XRqSw7AJdMQdLxpUY1znK1wPYQAcHjKEFsyNcpgHAEVWwDNUWC6c2GyDngmDTTJBW0a/LIUZwcNIv2g/2+GK7k8pJGJJhxvHVAnhmxA4LB92cgqQihgbKErweQbc9FgcZMWZPgTcKU0RLwM3DuyOMBSTGDUueYgd9SqwzMgaCBbJnjDBiNGs8l+DK6UYtogKw7qU1knV66BcFMmeFWIDkxCTGlKZD/iDXBEQ1mYzQ/BlQpOSoUEalbWwcHlAQAUSTZmOocxpJIAzeED7U5jMHNmvuv2UHCRNsHjdaBcZZ2lI9ApzjZbwwXt0tDTIHQL7sMg7sd4TkPtfb/fDTcVyvQ4eyIpKbWZ6mCmCjfTDXsGeDRzIHSLtIYHcbgI+YElTTKkfeB6NktquIrrIofWD0VSk3Wp8EFxVQTQEehc92S0amxwkYjh2xymh0QHhavFPqM8X3DAAimRIoYMIdJIDeMWK8okSKhSMmMXTnLJhMsna9qFL7k5KN67Z3wjXAcDBM3sNEJTFIEfKTQvXDeeo9rQCHQebwPbdc2EFSlPaGBcIo1D6gPjKHEbTdL7neGKfIESC3mMQZhIRCJj+JBsYVMg9EyQV5nvW8RIIyKzeMP9pjXNoTmwfVd7e8HVQ1IlWgxUhJxKSZWPUSUvScKU63zMA5oFz4Lc1or4d8hjwtp5Kqq475/ybXAlWBUaXHWy7ZReb2eEQLLLjHm0cRmFpRElLNDmPgELpYyUDBLCUUlzpkKIn33RfD8nMi0ODEbCKX8293rNiydZGCTFJotqZh6E2QTWF1EcxZoURfgXBc8rjUbY/EX1bg0Ter0qS7/FWb4me9TITLGMOarsARfil/89iUpz2QPulFHlW/KUL8gecCdhFn6ViL4qe8D1QI7saT+zhf198n+4h5SjwtXNYs8lxjHhahnz91whHxPu1IIcbb9btsPV3MisyopAZc3RvesYa8ffrd0ogGy8LJznCttTG59Koij7xp1tBdOEYe5N2QTPIDuffBHiKzGLfcPOFriwEKOWj+sAk6+H2ZFznM/hAkAapOmcGLkm1on15Om6Xh9pb3YqdMdxXjNUfcnra9eH+rq/+pa3nWyFC2tEtC4v40rFpWWe8OWhE+WBSNV1MwlkOZhuFKPsgIBVJusWvchhBQILDD3KQ3le7iDFSVJm+5qZzLMgjzfQudM5UUhmv3Htz+EmsLbEnJEvIrU5FscttF5XJobPcaehQXCngoVlbqlNDSLMXa6yTTfApZzBAjNguNCzco6LERZKVR9irVeB03IqOiHkNd6t2qX1DS4u2gluXcYWUBDPfacKlYmlYFVUrHKd0Idb+MKeKkJbKayUDfRY6gMmXErz7U9NKRfyvA+GFxBZPCnN8LkMLzWyV1vnn8PFMpNRbeYUWDNIcg9LHEAVCSzlpz4MIIlMm1KxMHIzWCHJiW0HpNq6cBiAnCQ4NTIN8yQr2dZUxJYSFq9YLu4Q6b8LmmVZbudYEdio0G6Fy7dESFkbz4nM+ExhBYd3glXniVsNBUsRoSH73Iz1vNxP411EovJLQ/jKA80ZfOb4aQqqDxC2Dt3yYgqvSHD7drFa/4o6t+1a4k4KK20N+uVT5Zd6g+kkc+4sLlYaQDOxUldqXCrKeh5upWDDFPDzQWaUhqK0isOB6TDE9KWWuDJnslWqtFDKZ+4IFyIlEYV+JDWBEtSlcJCweMPtU4glFrGmDodWL+31OeVwI1aWsHMDN1lAwDZyfi3q0oFey7qJK9Tgrocs6fvCFTs/zOW2ZqRr7fB9CI4f/L3kBSDmevEJPMKNAY1C5+OmosyHACO4y+fX4nZHyeXgElj7Qfeu2B3nbx9jwO5lvu8IrCtqiY5VxjYwCsWRvEQhbCpUinsX9TBDYYlW+UC38hoAiDuCOEca7zUo6RZb+LBovdeRKm9qBTskkAVFm0Jt8YlGLQtd8u4zn9V5Skhlq7oL5hThgS7FLkpRGUVCuAnBHGW87laXWgIDWzYNSor9jXL9NrgQjLieMgp6AtcRWyZTwj2azxpwbaHE0HmKD+B7FxVL21z3qEufjyaHAIGfOOykZl2XVbXKjZZa33pezugucN1c1BEj0JkppUTArTyaaxf0oAMY3bZ4VVSm682AuUGJGJx4oFVuDIJRIECYI9/kW5/VAGHicXfIxW2B0gDAO95U5T6BO8dqdGzaSGC6lAJ9hoVX22S57zB3PbeQwcXQmZFi/axI09jULR43HHQwfCDwilAjcBMCxO1BD3/lwDl4Y9Z4qFewQj8tXP9tmesTuKAAIHTDgD+YPWJYtXLJJJX36zmW+WmIJWor47TOeLJADMVDOoo4+4oH4p57aRRo8frE4DQnSI33Bi181mK+x88g3LvvTPczuLqt8MDJKL8lhjNgoCmT/cq0+A+KsLZezZ6p8EI69SvtoS45SmQAbhQh8BvnDTQtTwwKZT1rE/5YmWYYPt+sXj51NVtWFIUlpePbVIFHQwupLgASQ7GSOgs2MzhVlAQsSUGbhQ/+QA3aOZ950BDjuBTkjRg+0mqkSjVrkcy7nTqVve8GF/fJ3M3fA3kASwNZt2huUbivnMErosLhl/HgUF6ta1VaLg500b7Rmb7Zr+Omno5hm7wpeba4imPKa0qrpLVwtQJM+N1OUQvh5qbrmlEAvqq8+9FG++Cmim9ZuBwx/OLdl+2DG/Ofw1BDCX6zs9A6uPqUMkbkbPJetVIL4QI3mqaZflCLax/cT6WG+yf8E3YNd9Bv72s6NqXb6YmPNr+nYy3l/wnPFjfHRrKTnIv/wp7dLL7jf7oPLveq+LXn9YfvIWqVdBbic3T5Jxjv4LJihIV6VCC7yWn9FonzP4B5u536zT2zRfud7UZdO9iq9dY7uNxk21u13eQwWrx6/0n3rNPqV+PcXL7+15ChetZi8z1R377+5Lq/aKt+Z6e/eT/dudppp/2ObtTfJTXDM/W0fQYxO+9/EBVGC3XRa9mrs4a3/c6Hi53hQu2fDrstgTwa9jqXn760Z3YOgM9ub057x5aT+9tFXz072Waeo+Xp7Vmnf3Q5u73v7eb7s1F3cGzpjmYtscn/HfkvY3FWlxasQ/kAAAAASUVORK5CYII=" vertex="1" parent="1">
          <mxGeometry x="450" y="920" width="80.31" height="60" as="geometry" />
        </mxCell>
        <mxCell id="93TaMooDdM3QIlw6AQbC-192" value="" style="shape=image;verticalLabelPosition=bottom;verticalAlign=top;imageAspect=0;aspect=fixed;image=data:image/png,iVBORw0KGgoAAAANSUhEUgAAAJ0AAACdCAMAAACZ+IrkAAAA9lBMVEX///+75vs3NTXT7/wSh7H8/Pz5+fkzMTEAhK/29vbx8fEvLS0rKSnr6+vk5OQAgq7Qz8+cm5s+PDyJiIgda4fY2NizsrKmpaW7urogHR1PTU3GxcV+fX2SkZGtrKxEQkIlXHEAfKvI6/xgXl5qaWlzcnIYFBSMprOVs8LF4euBmaay3PAAAADo8va32OafsbmlyNqNu9Fzt9A/mLxkdX2Zy+MAc5hGo8NyhY9QWmBXZGs8RkrX4OSBj5WPnaQ1LSkpNjsePkkmTVtrlaYxeJNenbd4q8Q+YnCqwswzh6UFTmZLdIR9prdag5hPjKVDNzEAZYshFQ/9t3jjAAAPRElEQVR4nO2bCXebVtPHMRL7Ihazb5YB20hBRsKWZFmJs9l12zRP+/2/zDsXEEKbraRJet5z+J/UliUBP2buzJ25l2JYq1atWrVq1apVq1atWrVq1apVq1atWrVq1er/p8j/9vLE/rcrKlb8dST7pG39LZa4JZXgr94mfqERCYRAsPBTq+iY6hPNKH+x6Cfp1uys0Di8/LJ4wOz/RoUNBHRxwYTrRKVNzIqODQsKsbAZ6cn1UX6JwjjFt9EPZ9vqP0I64pIAhvDgpWwV15YrD4phyRMjelYN2dVRcoVSGNNAiKzftOaPUogIEaJja5iuWAJGOiFVXsmx3xS/VRUhe1ZtHSeu4CJ0Czayo6z/BDjHIjEhhjNrbyJBCzncsiyeD0WGYbTQslAwCO4F2ExQL3QCYwqHinzpV5mDuxBsBG1GPyOaXd4W5TeyoPPU3XXE46U4LrBxi+NchhQc+8IgMC26cFlMLEaYRhWjDfMtsCnr2sCu2eb6nD8qnFPTpigemO7hP4rn8FoUhX7IhhxecLYIPrbAOA5yJAzGwq+EEwQQFirvIMRoPepI88DVvkHE0tT9+T2FvySO5ymci02DpyJJk3EJwUWBWMDZYELSu1DBdKri1CdmZefgRY9T6hhvF/eF1Y7QfcDhiiuHllzAWcg2hGlbkAo93gZiw1LrXCcUIfQv0K7jyMZ5bm02qnxNPTTUoCs+DHBOEZFbLQ/lQiewwGgxxcsEZnB2nWrEWPkX4ZG+AzKOWpEhjvcfFmoErz58PCt0WvzEH3CFt3iq4XolwdRi/EG0KlYskDHPxwxmKhfS6vSabVV+Zb45/TH6gl9dD37dI57T00/XavD+I7zY1Nl7xTXUxZ1C4RUhxUMY2+jqsUXFomRzFPjVVCyvOj9hWLxcRiwhsQcx9okV5QurvI5y//7Dx5Lh8ydTvv9wStPdhmh6Oj09nZ4tXP36+vrdTWgHeHVTgY4xWsDjkaNaFKWYmI/zUcUmhBeUW5qM9b9lXiNEKUIxAJcAiy0Krun08elpJMQfPwNQb4b48oKthnz6zTafge/6arC4u0eA1CJ7diGO8QDSD0UZrMFzVTIRdBgxUQklGt8St6KP2ChOCe6RC3/7fYqMNUnho/CMzmfdbn/U69KPk+4KEan3Jf/D6yTJ8/P15eXlYL4IgE8pAx1ZUvEkF+AKIMGMeIoLywGoufrx9YomR+hO+bubtzdnp9Pp9M9HZJ/fl+jDP+HVLKf7JNBlGfpjtjJe/iXvfjA7oGSUXQHgfL54aGTsQLV5PEZwkuHiHM6FpcX0yDh6uhDlEKVUZTF/d3391xR57K9PCOBzMW9/hb/HY7pPTHp5guiS2rHjL3R3GiO6zsnJcIgAB/MbZZ0kIREFru/LaoimGT50kMU0LzCYV5hWIg0b3RW+ePfuetTJpsV1P89zhMdgDCvmvW5vnOR9Juk/YVm3n4z65djr977MwZ5/Joju/OQEASIDDm7whv3wIFDwIl1SMcrSghwoR7vVQcFG4TeXl8/oIre9gm7qZzSMNEx/+N/Zctan82TcZ9JuhmX0DJvQ3V4XRmKCOZ8B8vNzZbxSGfBd3nC7EyAVSzCBhAofHTnNEoJtoURwc3mVnXcadPRvl3n/FtP+mILhsFG3nxE5S4xSLJsRGNhtPMp7CZwAObr7boMO+MCAVzcKvg3IWRdvLD7wjkwlgvEGYuF+AWwnJyXduKTrnvrjLkkM8pymezmRzMbEuBgqowRb9vNR+khP0QBfQvjS23Ql3+XCpnYMSAWRf1x3wUoh5BDlbpBl6Iwl3aSio/98HmHL09nkaUb3xkSapfVxk3GKjSEaFpgovUPfvdyhK/nexTa3gcYHkScdN3+JKgqGu/lVVp5vk6576pHYJ5p+hEB56t42DxwRyNXd2bMY3Z+i2HneQ4f4rnU5DvjKfhyP27HniMdlEjOEYHiYD7LhSZPudkXXG7DY32DDfIylyXLz2GWeZ0mCzf8usk+e7KU7GWamqcuuwiEpoSrLpnjk1OpCRWZFb2u2XboRxiRTNKM+bt8ukSRpmmJumXzovLOf7uQkFU3T9GUkw9Al4Ug2DYoHjlL9YeNUW3TTJRabnS76c5bunKCTYP5p91U66CziWNUd05EE5tgcZ6DZOvS185NdutU08HWJ/a4eKhPBrfrZasaYvUBnQMLioNA7EgxDPbEFoRo7wuYJS7phXs6h9CcB6055jy2cuCWwAvt8O5mU1cDkMJ2GQiIIbcplj5xXoVDCKVvWGOx8D90qaOkvAgnu/RA6yXi84xMyTUbjWVVJJYfpXERny47uqdJReL4NtW9kgq3TTbqTTtO19KOQQg3yJOv75msmeZr2q9vI0049z27q/NlGdFygOqJoHuFdUoYay3aLonn7bjdcC55Nu/nkdpQkS3HPiZkkm0zRN3uHHTtaVMmYd3VBeN12rIsKQLlMifvpOk+lTf4SsaLMzPP8r+3gIDspS5JE8ghf7Z8fMt3JoJ4lLMp1XqUTY+i14pWNd263UxmvSHePAjbpg3Ho/mQ3oYzy/OtNZGDP3X5luj102apRhxCMAiWUdk6zIdQiUZ60GuMH6Dqo8u09IaQUSqV8iaWTnVONe1AdnIVSmp8fcmwNhxwLMh1deiHlmThP2ebaSztnrC40QkO9nLuS7iQZ5d0tp6RkVTr1/pDTQ6Ybzut2nOI1aF416aWhp1tcEEuNCNy9384qqfSeyhOlk0mvTyfNVVa4/fEsSUs8+uvBdDL/p66NbY4rbEIcTHqEb+GhoTVNu51R1nh572tZIS57UJnfQh0oYGl16DLBmFk/z5YTVL0PD5lu8A/OVasbLlQqwYuLE6R8Ebjm1ld277j27dRF32XnMPDGGPb2CxgsxaAYXqaj2Qgc3ut3JwBXhcQu3YDHgygKAwqq20iS5Mh+ISZY700kS9t5Nd31R3W1W/os8mRS/Bv66RTm+1sAWmJQtGcZ5OiMvEWBA3Dnh+AgTlXfN2TPhQbNYAVHjQ9216zKq+aegnnXIec13unHDzKR9/JbUjjLk3TWTRPogrJuOut1n5IiKa7gtn0wHCjgU5VlWVEzZdWmfIwUfdXZH7Gsaxt7DcvsGm+NR3d5LOl3R9i8l2NZr5tOetAw9sdoSWA2zqHd6ByAuynaw8KXBME6uhroqE+QzX14giebB+q+Pb6t8eD6MvH0mOpderKEvJwCVJr1aLJXNLOrGWzHr9k9VzU4lS8JMCDacRE1f3fOJjRHO5gF96SCFd7okT4l0gSaiy4inU1QjZ71emXdlN/uhxte8utGbGUsRpOKIBN30zEpvFQdvIDXmeQDyOHQUENVBVB0lx6Dh3t5j87rIbcFl63TXKTGob66tFhYjWF2Bv8rKxYv4Y3GS5hKS0fOirKqWAaA0qVm24AbXgbFBFFYz9M0SXbqJFbtS5GbeK+VVcSepLxKLJ0OVMZjutdYWAS222Fnr+GGl4uyvVZs4KNUmBsEbbtD3LIduz9cmwe8ZD7QEJzaK5VPRsM12wbc+eUC2rxiglBUWYFaCEUiQ7Av7oQSkhm55vY3RAlazaKTM1GSPjhrVBQjgBoOR6Pz5tsbbIOFgkKVV72A53TBh06+3BklCOalsUVqjotDtxtDuwu524X5Ba1Yr4Uroeec7Ph3g29Xze8PB/fVkglvSHrMuyzhKHxYrea8so0sOpIf2oGCU6grb2xCUOU5KYq3/rEvs+HwaL4123CYLf6pswhvgLO8CxPDnNDyKqzXGllBkhxTN8BybuxWiuMoDG1lXYQ94IvnLBu+DthAyzL3oVyKDZRyhsCKtVQIVSfij94OIwVRgxDfkmmoNrU2I2/hd/PLq03C8/P1aEOvz2uyq8GN/VCuwnKR6oYok7wp0q6MdqSkyP7GzWySZBiGLMWwgihqKgo0KnLdCpO3qLv5YHC5ZcST5sBEYIN5+LDeq+JiTTPRKbhid5ExNLSLF7rfRrcjIaSATfZNxy1ijgog5riHB/zuBjFeZcVoPC/+oWXrq8vB2/lNqIA/qziwim1RHk1UPpgvKBIsW5QAUii/cvmXRRg8Z8u+IzLQ6eJ8oPqG4QXFCOI4XAmC+7u7u0UleGkXS9TNyFINLwKX8oiDNaGvKjcQSbLA+1bfborkUMMkEOiRBN6Cl44mSnpjuRIJaIo1OGoV5IXNiljgPWi2fB86Uby4Wcfmw+bsJEX/Zhv7woZ0XES8FuKyWS126K/vylKyV8RRsfHASirOl1OSZPMbu6+OevyezpYY13Wc6lZ93KinbNGC8RPaxSK0jVjsCHk7iD0vDtAGBIx+V3NCaPKrp06g+g4rnGCzhdD21pxHSDAMbdVsiLHh1CWqx+O254CDFVWPAAtKa1mBoeVIaHOdslEa4gXGiRVerTwnhEo1xMzAa3qT0L5v6DGOJK6OJE19vV0KposhUNiAihwzBDpZYsWY4iX0oJFgU4rn2xQ4kJBizq4fOOKq+GSMTeORwrG7ThtwAivW1ZfgaOvBHHOqrrEYESi+aIKVVIdBz8WULTPm85TKAh5epAy+PsxdBYCgehuNwnc9rgW1w/qmxEa37weyicoyQokl1kOrG+gzIsSrbV+eUzHWV4oc4ij1Azqispq4xHizaPuugUesj2LI9d1KkV+uUom8yYohxRul+93q4SKM41wCYzwePT5EGEp9jni1vQ6B+m2b6q9pbXzRdarHw0xXwiTwa2USgatMrVAoFJhQKSy0Xvgy3fp25Z/xtBiG8mkdxp7OYDokxJUdbKGmK3ZZL4opla3Tm7gGJdTviYTXJYri6sSmg4k2vt4RXD1lhVdVr1pOU/VTdYzqr0/zWrvwXSKYehULSm5MsyKztsLqOQM8KH0tKAUNUYPojUT3jY9zHIu3vgBBEHIgr9ethNJkGFVN7YRXOpVZgZhuY5nvZz+cSmAsHjW3GarkwYXVlbXS18TKuk7zCbujN56+W3qwsctQDTB+tUEluJuluRb/pFDdr9DdWPgobUSsZn6MlI2NrwveT4mFAyKVfWNb4msGx9twH2H+Stu5ex9VktejS5I36Y/dgP0RIj1t3/wdGutixt+MTPIXPp4NRfy+t4N1KJD6Lw2Dpkhp76KkoDaIfulA21CzbmlI0hpv/5Rnw4/T/iGuNbOG9B//7wo7Ypvm2rdz+59qIyzZn1Mo/SD99Lm0VatWrVq1atWqVatWrVq1atWqVatWrVr9YP0fS819l9c0apwAAAAASUVORK5CYII=" vertex="1" parent="1">
          <mxGeometry x="750" y="822.25" width="63" height="63" as="geometry" />
        </mxCell>
        <mxCell id="93TaMooDdM3QIlw6AQbC-137" value="&lt;font style=&quot;font-size: 12px&quot;&gt;Cassandra&amp;nbsp;&lt;/font&gt;" style="text;html=1;strokeColor=none;fillColor=none;align=center;verticalAlign=middle;whiteSpace=wrap;rounded=0;fontSize=21;" vertex="1" parent="1">
          <mxGeometry x="729.5" y="850" width="100" height="39.5" as="geometry" />
        </mxCell>
        <mxCell id="93TaMooDdM3QIlw6AQbC-146" value="" style="endArrow=classic;html=1;entryX=0.5;entryY=0;entryDx=0;entryDy=0;" edge="1" parent="1">
          <mxGeometry width="50" height="50" relative="1" as="geometry">
            <mxPoint x="180" y="880" as="sourcePoint" />
            <mxPoint x="781.5" y="840" as="targetPoint" />
            <Array as="points">
              <mxPoint x="180" y="760" />
              <mxPoint x="761" y="770" />
              <mxPoint x="782" y="770" />
            </Array>
          </mxGeometry>
        </mxCell>
        <mxCell id="93TaMooDdM3QIlw6AQbC-155" value="Invalid event data - Skip Processing" style="edgeLabel;html=1;align=center;verticalAlign=middle;resizable=0;points=[];fontSize=9;" vertex="1" connectable="0" parent="93TaMooDdM3QIlw6AQbC-146">
          <mxGeometry x="-0.3336" y="2" relative="1" as="geometry">
            <mxPoint as="offset" />
          </mxGeometry>
        </mxCell>
        <mxCell id="93TaMooDdM3QIlw6AQbC-157" value="store skipped data" style="edgeLabel;html=1;align=center;verticalAlign=middle;resizable=0;points=[];fontSize=9;" vertex="1" connectable="0" parent="93TaMooDdM3QIlw6AQbC-146">
          <mxGeometry x="0.7718" y="1" relative="1" as="geometry">
            <mxPoint as="offset" />
          </mxGeometry>
        </mxCell>
        <mxCell id="93TaMooDdM3QIlw6AQbC-194" value="&lt;font style=&quot;font-size: 19px&quot;&gt;POI Data&amp;nbsp;&lt;br&gt;Processor&lt;br&gt;&lt;/font&gt;" style="text;html=1;strokeColor=none;fillColor=none;align=center;verticalAlign=middle;whiteSpace=wrap;rounded=0;fontSize=21;" vertex="1" parent="1">
          <mxGeometry x="435" y="1000" width="105" height="20" as="geometry" />
        </mxCell>
      </root>
    </mxGraphModel>
  </diagram>
</mxfile>
